<?xml version="1.0" encoding="utf-8"?>
<!-- Generator: Adobe Illustrator 27.5.0, SVG Export Plug-In . SVG Version: 6.00 Build 0)  -->
<svg version="1.1" xmlns="http://www.w3.org/2000/svg" xmlns:xlink="http://www.w3.org/1999/xlink" x="0px" y="0px"
	 viewBox="0 0 500 500" style="enable-background:new 0 0 500 500;" xml:space="preserve">
<g id="BACKGROUND">
	<rect style="fill:#C4A7E4;" width="500" height="500" rx="50" ry="50"/>
</g>
<g id="OBJECTS">
	<g>
		<path style="fill:##C4A7E4;" d="M163.926,231.16c-0.765,0.789-1.856,0.865-2.802,1.24c-1.778,0.706-3.601,1.299-5.358,1.921
			c-0.361-0.497-0.127-0.748,0.134-0.925c1.66-1.129,3.332-2.24,5.002-3.355c0.725-0.484,1.455-0.963,2.43-1.608
			c-1.036-0.41-1.659,0.077-2.304,0.189c-0.631,0.109-1.244,0.326-1.876,0.438c-0.71,0.126-1.429,0.212-2.148,0.27
			c-0.639,0.051-1.285,0.02-1.925,0.06c-0.698,0.044-1.393,0.128-2.617,0.244c0.624-0.49,0.813-0.686,1.041-0.811
			c2.754-1.514,5.628-2.745,8.639-3.659c0.589-0.179,1.303-0.304,1.331-1.161c0.073-0.014,0.155-0.059,0.217-0.04
			c0.05,0.016,0.076,0.108,0.113,0.167c-0.1-0.057-0.2-0.114-0.3-0.171c-0.436,0.148-0.872,0.419-1.309,0.423
			c-2.799,0.028-5.554,0.414-8.301,0.904c-0.308,0.055-0.631,0.021-0.947,0.028l0.023,0.074c0.138-0.253,0.213-0.634,0.424-0.74
			c2.157-1.078,4.23-2.336,6.549-3.072c0.603-0.191,1.18-0.466,1.874-0.744c-1.205-0.381-1.204-0.376-2.972-0.168
			c-1.038,0.123-2.078,0.23-3.118,0.339c-1.035,0.109-2.071,0.212-3.105,0.318c-0.311-0.507,0.075-0.772,0.349-1.019
			c0.922-0.832,2.062-1.231,3.233-1.563c1.161-0.329,2.323-0.658,3.474-1.021c0.269-0.085,0.495-0.306,0.803-0.505
			c-0.685-0.584-1.369-0.348-1.959-0.301c-2.723,0.219-5.439,0.519-8.156,0.811c-0.219,0.023-0.422,0.201-0.632,0.307l0.04-0.048
			c0.154-0.243,0.261-0.644,0.468-0.704c1.938-0.567,3.781-1.345,5.596-2.229c0.782-0.381,1.691-0.501,2.54-0.748
			c0.443-0.129,0.881-0.277,1.838-0.579c-2.201-0.518-3.868-0.082-5.521-0.115c-1.572-0.031-3.148,0.196-5.258,0.1
			c2.349-1.077,4.34-1.424,6.264-1.973c1.897-0.541,3.961-0.431,5.876-1.368c-0.633-0.598-1.267-0.516-1.885-0.521
			c-2.253-0.015-4.506-0.025-6.759-0.064c-0.54-0.009-1.077-0.122-1.988-0.233c1.95-1.188,3.838-1.205,5.584-1.692
			c1.679-0.468,3.503-0.168,5.624-1.114c-3.761-0.164-7.02-0.307-10.278-0.449c-0.018-0.106-0.037-0.212-0.055-0.318
			c0.3-0.096,0.594-0.229,0.901-0.281c0.87-0.149,1.754-0.221,2.616-0.405c2.283-0.488,4.554-1.037,6.908-1.041
			c0.348-0.001,0.621-0.099,0.689-0.484c0.06,0.059,0.11,0.13,0.177,0.155c0.059,0.022,0.137-0.006,0.207-0.012
			c-0.12-0.031-0.239-0.061-0.359-0.092c-2.311-0.418-4.628-0.603-6.965-0.209c-0.313,0.053-0.64,0.052-0.958,0.031
			c-0.146-0.01-0.285-0.127-0.427-0.196c0.746-0.869,0.786-0.949,1.543-1.1c1.812-0.361,3.633-0.674,5.45-1.012
			c0.616-0.114,1.23-0.243,1.984-0.393c-1.142-0.646-1.142-0.643-1.732-0.688c-2.649-0.2-5.299-0.398-7.948-0.608
			c-0.309-0.024-0.612-0.121-0.918-0.431c3.714-0.381,7.427-0.762,11.639-1.194c-2.345-1.174-4.561-0.996-6.491-1.707
			c0.064-0.556,0.388-0.54,0.711-0.548c2.413-0.054,4.823-0.132,7.168-0.672c0.153-0.549-0.227-0.581-0.526-0.617
			c-1.988-0.238-3.977-0.458-6.064-0.695c1.234-0.663,1.853-0.791,3.595-0.763c1.256,0.02,2.53,0.33,3.736-0.104
			c0.074-1.128-1.345-0.58-1.371-1.656c0.915-0.076,1.838-0.137,2.758-0.235c0.865-0.092,1.726-0.223,2.605-0.339
			c-0.34-0.858-0.521-1.131-0.937-1.17c-0.88-0.084-1.765-0.14-2.649-0.162c-6.047-0.146-11.366,1.991-16.288,5.288
			c-1.402,0.94-2.733,2.001-4.021,3.095c-5.195,4.413-7.244,10.16-6.708,16.813c0.317,3.931,1.087,7.815,2.283,11.6
			c1.288,4.072,2.509,8.165,3.762,12.248c0.76,2.476,1.8,4.827,3.089,7.076c1.895,3.306,4.468,5.902,7.913,7.559
			c1.522,0.732,3.084,1.407,4.679,1.957c5.432,1.873,11.007,3.112,16.741,3.607c1.364,0.118,2.728,0.287,4.075,0.529
			c5.167,0.93,9.572,3.292,13.102,7.195c1.458,1.612,2.885,3.263,4.203,4.989c3.362,4.402,7.285,8.158,12.057,11.016
			c4.911,2.941,9.831,5.853,15.209,7.894c4.08,1.548,8.229,2.843,12.57,3.429c3.289,0.444,6.587,0.504,9.866-0.039
			c4.29-0.711,8.573-1.464,12.848-2.262c1.801-0.336,3.479-0.23,5.188,0.506c2.836,1.221,5.466,2.792,7.89,4.657
			c4.634,3.564,9.768,6.231,15.01,8.727c2.836,1.35,5.678,2.69,8.542,3.98c2.331,1.05,4.211,2.613,5.838,4.572
			c2.761,3.325,5.02,6.91,6.192,11.109c1.028,3.684,1.52,7.437,0.922,11.232c-0.559,3.549-2.355,6.491-5.029,8.871
			c-0.883,0.786-1.728,1.669-3.003,2.112c-1.108-0.876-1.675-2.148-2.48-3.226c-0.27-0.361-0.311-0.948-0.933-0.971
			c0.025-0.173,0.048-0.346,0.071-0.519c-0.066,0.007-0.132,0.014-0.198,0.021c0.064,0.158,0.128,0.315,0.192,0.473
			c0.057,0.714,0.135,1.426,0.166,2.141c0.048,1.122,0.128,2.249,0.058,3.365c-0.024,0.386-0.455,0.747-0.802,1.273
			c-0.367-0.462-0.667-0.73-0.83-1.064c-0.988-2.023-1.945-4.061-2.913-6.095c-0.199-0.418-0.252-0.955-0.846-1.055
			c0.173-0.893,0.131-0.979-0.734-1.508c0.033-0.111,0.061-0.225,0.089-0.338c0.048,0.042,0.097,0.085,0.145,0.127
			c-0.097,0.05-0.194,0.1-0.291,0.15c0.281,0.515,0.562,1.03,0.843,1.545c0.02,0.797,0.066,1.595,0.055,2.392
			c-0.023,1.687-0.062,3.374-0.129,5.06c-0.011,0.273-0.2,0.54-0.41,1.07c-0.31-0.454-0.527-0.672-0.626-0.934
			c-1.189-3.165-2.357-6.339-3.54-9.506c-0.138-0.368-0.337-0.714-0.509-1.069c-0.076-0.108,0.199-0.449-0.22-0.328
			c0.1,0.095,0.2,0.19,0.299,0.286c-0.042,0.468-0.158,0.943-0.115,1.403c0.273,2.887,0.167,5.774,0.032,8.661
			c-0.01,0.209-0.146,0.412-0.309,0.849c-0.27-0.618-0.491-1.031-0.637-1.47c-0.885-2.667-1.753-5.34-2.626-8.011
			c-0.152-0.467-0.296-0.938-0.923-0.894c0.121-0.115,0.264-0.207,0.323-0.337c0.033-0.072-0.075-0.208-0.119-0.315
			c-0.021,0.071-0.044,0.142-0.064,0.214c-0.04,0.142-0.078,0.284-0.116,0.426c0.181,0.853,0.454,1.699,0.526,2.562
			c0.187,2.239,0.29,4.484,0.41,6.728c0.012,0.216-0.086,0.437-0.205,0.988c-2.306-4.403-3.447-8.922-5.159-13.241
			c-0.099,2.332,0.682,4.563,0.829,6.869c0.146,2.281,0.794,4.52,0.508,6.885c-0.236-0.484-0.5-0.956-0.703-1.453
			c-1.938-4.759-3.867-9.521-5.791-14.285c-0.163-0.404-0.369-0.703-0.846-0.667c0.115-0.094,0.257-0.167,0.307-0.281
			c0.029-0.067-0.088-0.198-0.139-0.3c-0.038,0.047-0.105,0.092-0.11,0.143c-0.014,0.139-0.002,0.281-0.001,0.422
			c1.132,5.61,1.842,11.277,2.286,16.98c0.016,0.208-0.137,0.43-0.298,0.895c-0.226-0.567-0.382-0.911-0.502-1.267
			c-1.664-4.962-3.32-9.926-4.985-14.887c-0.153-0.457-0.313-0.922-0.557-1.331c-0.084-0.141-0.432-0.126-0.645-0.185
			c0.135-0.084,0.296-0.142,0.363-0.256c0.039-0.066-0.075-0.221-0.12-0.336c-0.043,0.048-0.111,0.089-0.125,0.144
			c-0.036,0.144-0.048,0.295-0.07,0.443c0.114,1.516,0.351,3.034,0.318,4.546c-0.082,3.776-0.023,7.542,0.239,11.31
			c0.059,0.848,0.228,1.735-0.127,2.675c-0.181-0.242-0.323-0.349-0.352-0.481c-1.225-5.566-2.435-11.135-3.666-16.7
			c-0.127-0.574,0.032-1.324-0.771-1.579c0.017-0.151,0.025-0.296,0.034-0.441c0.002,0.134,0.003,0.268,0.005,0.403
			c-0.129,1.426-0.183,2.864-0.417,4.272c-0.139,0.838-0.56,1.629-1.027,2.915c-0.309-1.221-0.464-1.958-0.688-2.673
			c-0.156-0.498-0.055-1.152-0.718-1.396c0.067-0.446,0.131-0.891,0.196-1.336c-0.084-0.364-0.168-0.728-0.252-1.092
			c-0.065,0.003-0.13,0.005-0.196,0.007c0.067-0.077,0.134-0.155,0.201-0.232c-0.001,0.068-0.002,0.136-0.011,0.214
			c-0.224,0.452-0.068,0.796,0.266,1.098c-0.298,0.418-0.543,0.833-0.146,1.314c-0.338,1.222,0.106,2.402,0.302,3.566
			c0.202,1.197,0.32,2.375,0.339,3.584c0.023,1.445,0.17,2.888,0.229,4.333c0.026,0.638-0.018,1.28-0.063,1.918
			c-0.009,0.123-0.176,0.234-0.392,0.501c-0.267-0.661-0.35-1.281-0.476-1.879c-0.896-4.259-2.158-8.404-3.639-12.497
			c-0.983-2.717-1.726-5.521-2.581-8.285c-0.07-0.225-0.176-0.439-0.418-1.033c-0.092,0.705-0.191,1.049-0.172,1.386
			c0.291,5.136,0.606,10.271,0.892,15.408c0.075,1.346,0.066,2.696,0.103,4.423c-0.881-0.786-0.717-1.534-0.873-2.153
			c-0.158-0.623-0.282-1.255-0.419-1.884c-0.154-0.707-0.291-1.418-0.46-2.121c-0.169-0.704-0.361-1.402-0.555-2.099
			c-0.172-0.62-0.359-1.236-0.543-1.853c-0.207-0.694-0.423-1.384-0.625-2.079c-0.179-0.617-0.338-1.241-0.518-1.858
			c-0.204-0.695-0.43-1.383-0.631-2.078c-0.201-0.695-0.383-1.396-0.574-2.094c-0.17-0.621-0.33-1.244-0.514-1.861
			c-0.197-0.66-0.417-1.312-0.738-2.315c-0.141,0.598-0.25,0.822-0.236,1.038c0.23,3.373,0.249,6.745,0.094,10.124
			c-0.081,1.764,0.037,3.538-0.014,5.304c-0.023,0.786-0.241,1.566-0.37,2.349l0.074-0.036c-0.157-0.604-0.342-1.203-0.467-1.814
			c-0.468-2.287-0.86-4.591-1.385-6.864c-1.016-4.397-2.102-8.777-3.163-13.163c-0.11-0.455-0.247-0.904-0.515-1.345
			c-0.982,7.361-0.381,14.803-1.401,22.161c-1.591-10.005-3.971-19.858-5.15-29.99c-0.088,0.385-0.227,0.766-0.257,1.155
			c-0.624,8.112-1.233,16.225-1.855,24.336c-0.036,0.465-0.164,0.922-0.398,1.391c-0.708-1.963-0.925-4.014-1.32-6.021
			c-0.404-2.054-0.688-4.132-0.984-6.206c-0.285-1.993-0.491-3.998-0.78-5.991c-0.299-2.064-0.657-4.119-1.044-6.516
			c-1.448,2.34-3.325,3.858-5.017,5.556c-0.81,0.813-1.304,1.818-1.749,2.869c-0.428,1.012-0.656,2.137-1.601,3.178
			c-0.386-2.187,0.517-3.954,0.926-5.774c0.405-1.801,1.001-3.56,1.583-5.577c-1.082,0.736-1.394,1.819-2.048,2.615
			c-0.663,0.807-1.265,1.667-1.854,2.532c-0.634,0.931-1.203,1.907-1.834,2.841c-0.567,0.84-0.91,1.861-2.088,2.66
			c0.359-2.158,0.941-3.961,1.345-5.799c0.396-1.799,0.859-3.582,1.372-5.699c-0.422,0.581-0.735,0.895-0.91,1.273
			c-0.684,1.474-1.563,2.812-2.637,4.03c-1.924,2.183-3.705,4.464-4.886,7.158c-0.109,0.249-0.392,0.423-0.728,0.551
			c1.168-4.516,3.076-8.753,4.324-13.239c-2.185,2.363-4.044,4.964-6.085,7.413c-2.003,2.403-4.034,4.783-6.121,7.253
			c0.153-1.583,0.856-3.3,3.125-7.681c1.254-2.421,2.522-4.834,3.682-7.322c-1.326,0.986-2.085,2.446-3.122,3.665
			c-1.147,1.35-2.28,2.714-3.456,4.039c-1.123,1.265-2.273,2.508-3.452,3.722c-1.159,1.194-2.089,2.613-3.831,4.074
			c0.867-2.497,1.968-4.246,2.805-6.107c0.824-1.833,1.803-3.601,2.794-5.352c1.021-1.806,2.138-3.558,3.375-5.603
			c-1.158,0.503-1.619,1.259-2.181,1.896c-3.091,3.504-6.089,7.088-9.431,10.369c-1.142,1.121-2.053,2.477-3.081,3.717
			c-0.24,0.29-0.526,0.541-1.032,1.055c-0.014-1.082,0.327-1.683,0.651-2.277c2.08-3.82,4.171-7.634,6.255-11.452
			c0.225-0.412,0.435-0.833,0.542-1.333c-5.021,4.781-9.687,9.884-14.439,14.931c-0.584-0.453-0.122-0.889,0.026-1.264
			c2.065-5.203,4.897-9.966,8.307-14.395c0.343-0.445,0.695-0.885,1.029-1.336c0.028-0.037-0.043-0.148-0.11-0.35
			c-0.517,0.439-1.031,0.812-1.47,1.26c-1.578,1.612-3.124,3.255-4.693,4.876c-2.689,2.778-5.384,5.551-8.083,8.319
			c-0.492,0.505-1.016,0.979-1.666,1.602c0.205-1.743,0.68-2.786,4.301-8.906c1.628-2.752,3.403-5.417,5.035-8.191
			c-5.335,4.834-10.121,10.221-15.597,15.491c0.551-2.263,1.752-3.775,2.582-5.448c0.821-1.655,1.824-3.225,2.829-4.78
			c1.034-1.601,2.167-3.14,3.023-4.892c-3.503,3.603-7.005,7.205-10.484,10.784c-0.726-0.391-0.446-0.891-0.307-1.31
			c1.314-3.943,3.265-7.52,6.133-10.562c0.025-0.128,0.053-0.255,0.08-0.382c-0.037,0.129-0.074,0.259-0.112,0.388
			c-0.458-0.226-0.759,0.079-1.05,0.337c-3.298,2.922-6.587,5.854-9.889,8.773c-0.162,0.143-0.409,0.19-0.587,0.269
			c-0.504-0.243-0.259-0.585-0.148-0.825c1.033-2.239,1.859-4.601,3.665-6.401c0.002-0.155,0.014-0.298,0.028-0.44
			c0.007-0.068,0.017-0.135,0.026-0.203c-0.076,0.092-0.219,0.189-0.212,0.275c0.011,0.138,0.12,0.268,0.188,0.401
			c-0.204-0.125-0.408-0.25-0.649-0.397c-0.33,0.228-0.647,0.471-0.986,0.677c-1.533,0.932-3.129,1.152-4.852,0.523
			c-2.734-0.998-4.735-2.659-5.527-5.591c-0.719-2.662-1.251-5.323-0.884-8.105c0.519-3.931,2.423-7.142,5.173-9.874
			c2.929-2.911,6.221-5.323,9.916-7.232c7.944-4.103,16.282-6.945,25.125-8.29c0.133-0.02,0.248-0.159,0.403-0.264
			c-0.791-0.55-1.673-0.444-2.539-0.439c-3.908,0.025-7.688,0.806-11.367,2.055c-5.034,1.709-10.068,3.422-14.882,5.713
			c-1.606,0.764-3.205,1.518-4.564,2.691c-0.183,0.158-0.392,0.284-0.582,0.433c-1.002,0.786-2.077,1.193-3.372,0.787
			c-0.362-0.114-0.781-0.05-1.268-0.072c-0.559,0.994-1.097,1.952-1.712,3.046c-0.537-0.403-0.967-0.724-1.395-1.047
			c-1.345-1.016-2.659-2.077-4.04-3.043c-4.685-3.275-9.705-6.042-14.273-9.504c-1.789-1.356-3.773-2.468-5.72-3.6
			c-3.382-1.966-5.892-4.708-7.604-8.208c-0.708-1.448-1.445-2.881-2.14-4.335c-0.843-1.764-1.854-3.383-3.452-4.587
			c-0.504-0.38-0.929-0.886-1.318-1.39c-0.456-0.591-0.359-1.195,0.151-1.724c0.997,0.615,1.943,1.306,2.978,1.813
			c2.397,1.174,4.167,2.951,5.562,5.203c1.356,2.189,2.856,4.288,4.271,6.441c0.81,1.232,1.847,2.229,3.026,3.092
			c2.726,1.997,5.415,4.038,8.354,5.742c2.504,1.452,4.852,3.17,7.336,4.659c1.723,1.032,3.548,1.897,5.352,2.788
			c0.571,0.282,1.209,0.529,1.834,0.581c2.16,0.182,4.326,0.282,6.492,0.382c0.294,0.014,0.596-0.147,0.833-0.211
			c0.263-0.622-0.093-0.844-0.46-0.985c-0.293-0.113-0.63-0.113-0.948-0.161c-1.746-0.266-1.746-0.266-2.892-1.62
			c-2.075,1.285-2.075,1.285-4.073,0.314c-0.536-1.024,0.255-2.014,0.126-3.124c-1.107,0.18-1.324,1.354-2.127,1.803
			c-1.434-0.285-1.667-0.541-1.317-1.587c0.203-0.607,0.518-1.177,0.764-1.771c0.172-0.415,0.314-0.843,0.613-1.658
			c-1.615,1.235-2.262,3.403-4.65,2.694c0.535-1.485,1.041-2.889,1.638-4.546c-1.645,0.763-2.284,2.272-3.462,3.094
			c-0.484-0.273-0.709-0.586-0.407-1.012c0.595-0.84,0.675-1.771,0.626-2.784c-0.649-0.202-0.867,0.307-1.114,0.632
			c-0.381,0.5-0.677,1.065-0.984,1.562c-0.854-0.041-0.827-0.517-0.654-0.999c0.57-1.587,1.17-3.163,1.75-4.721
			c-0.575-0.384-0.832-0.044-1.085,0.235c-0.756,0.835-1.484,1.695-2.255,2.516c-0.257,0.274-0.611,0.457-1.02,0.755
			c-0.336-0.49-0.589-0.889-0.87-1.266c-0.553-0.741-0.489-1.493-0.087-2.267c0.364-0.701,0.966-1.315,0.825-2.203
			c0.341,0.189,0.52,0.123,0.472-0.298c-0.143,0.124-0.287,0.249-0.43,0.373c-0.529,0.485-1.039,0.994-1.595,1.444
			c-0.283,0.229-0.652,0.353-1.05,0.56c-0.036-1.643-0.024-1.693,1.264-4.095c0.643-1.199,1.303-2.388,2.174-3.982
			c-1.5,0.962-2.329,2.008-3.304,2.881c-0.987,0.885-1.898,1.87-3.425,2.944c0.636-2.582,2.002-4.194,2.871-6.032
			c0.855-1.808,1.884-3.534,2.66-5.459c-0.314,0.263-0.674,0.488-0.931,0.798c-0.616,0.744-1.182,1.529-1.77,2.296
			c-1.477,1.924-3.204,3.6-5.101,5.104c-0.033,0.026-0.134-0.034-0.202-0.054c-0.061-0.136-0.206-0.302-0.169-0.399
			c0.771-2.025,1.501-4.071,2.377-6.051c0.45-1.017,1.136-1.938,1.778-2.858c0.451-0.647,1.009-1.221,1.679-2.017
			c-0.808-0.05-1.182,0.4-1.595,0.654c-0.546,0.336-1.017,0.792-1.548,1.156c-0.464,0.319-0.984,0.556-1.447,0.876
			c-0.463,0.32-0.904,0.678-1.319,1.058c-0.475,0.434-0.907,0.915-1.365,1.368c-0.384,0.38-0.644,0.941-1.313,0.928
			c0.33-2.043,1.437-3.619,6.261-8.92c-0.447-0.448-0.703,0.04-0.985,0.218c-1.357,0.856-2.613,1.858-4.15,2.44
			c-0.728,0.275-1.323,0.9-1.983,1.359c-0.447,0.311-0.904,0.608-1.748,1.174c0.699-1.909,1.873-2.885,2.878-3.966
			c0.982-1.056,2.035-2.046,3.04-3.049c-0.16-0.493-0.513-0.408-0.77-0.274c-0.923,0.483-1.836,0.989-2.727,1.529
			c-0.826,0.501-1.612,1.067-2.429,1.582c-0.191,0.121-0.44,0.151-0.656,0.221c-0.057-0.108-0.11-0.171-0.119-0.24
			c-0.01-0.074,0-0.169,0.041-0.227c0.138-0.195,0.272-0.4,0.445-0.561c2.117-1.974,4.24-3.94,6.373-5.919
			c-0.827-0.076-0.824-0.07-2.054,0.548c-0.791,0.397-1.629,0.701-2.415,1.106c-0.715,0.369-1.386,0.822-2.082,1.23
			c-0.681,0.4-1.368,0.79-2.46,1.42c0.233-0.688,0.242-1.01,0.408-1.156c1.752-1.544,3.525-3.063,5.299-4.582
			c0.588-0.504,1.195-0.985,1.805-1.486c-0.174-0.161-0.246-0.256-0.27-0.245c-1.746,0.802-3.576,1.385-5.362,2.073
			c-1.319,0.508-2.431,1.553-3.64,2.352c-0.302,0.2-0.621,0.373-1.12,0.324c0.238-0.284,0.44-0.612,0.721-0.844
			c1.675-1.381,3.366-2.742,5.057-4.103c0.682-0.549,1.509-0.982,1.523-2.024c0.408,0.262,0.84,0.527,1.313,0.265
			c0.355-0.197,0.938-0.205,0.918-0.839c-0.878-0.24-1.501,0.316-2.194,0.633c-1.456-0.507-2.852-0.317-4.22,0.338
			c-0.799,0.383-1.612,0.74-2.433,1.075c-0.26,0.106-0.564,0.102-1.141,0.196c0.628-1.157,1.541-1.496,2.313-1.984
			c0.817-0.518,1.636-1.038,2.495-1.48c0.785-0.404,1.633-0.684,2.437-1.056c0.845-0.392,1.837-0.518,2.675-1.388
			c-1.625-0.486-3.039-0.067-4.442,0.078c-1.408,0.145-2.774,0.696-4.472,0.56c0.698-1.007,1.644-0.993,2.4-1.294
			c0.821-0.327,1.689-0.536,2.53-0.815c0.842-0.279,1.695-0.535,2.508-0.884c0.781-0.335,1.757-0.206,2.513-1.037
			c-0.675-0.783-1.536-0.905-2.385-0.967c-0.881-0.064-1.771,0.009-2.652-0.048c-0.624-0.041-1.241-0.199-1.85-0.606
			c0.6-0.062,1.2-0.135,1.801-0.182c1.036-0.08,2.068-0.06,3.054-0.555c0.464-0.233,1.091-0.152,1.646-0.189
			c0.544-0.036,1.089-0.039,1.882-0.065c-1.107-1.032-2.028-1.89-3.104-2.893c1.273-0.534,2.241-0.039,3.222,0.084
			c1.007,0.126,2.037,0.395,3.027-0.147c-0.074-0.793-0.609-1.077-1.116-1.193c-2.198-0.499-4.407-0.95-6.624-1.357
			c-0.452-0.083-0.979,0.019-1.427,0.17c-5.502,1.85-9.847,5.172-12.475,10.4c-1.673,3.33-2.573,6.953-2.972,10.668
			c-0.258,2.402-0.375,4.82-0.612,7.225c-0.134,1.359-0.355,2.711-0.595,4.056c-0.061,0.34-0.345,0.64-0.707,1.276
			c-1.089-4.849-2.233-9.288-2.015-13.928c0.226-4.826,1.516-9.376,3.711-13.664c1.433-2.8,2.984-5.538,5.078-7.913
			c0.743-0.842,1.547-1.641,2.39-2.384c1.557-1.373,3.358-1.841,5.397-1.289c0.774,0.21,1.562,0.365,2.345,0.546
			c0.208-0.582-0.18-0.795-0.505-0.95c-3.485-1.669-5.669-4.467-6.819-8.068c-0.882-2.76-1.655-5.561-2.338-8.377
			c-0.645-2.661-1.152-5.358-1.641-8.053c-0.455-2.505-1.792-4.288-4.112-5.291c-1.695-0.732-3.43-1.37-5.2-2.071
			c-0.181-0.419,0.136-0.644,0.499-0.863c0.552-0.333,1.126-0.64,1.636-1.029c2.437-1.861,5.257-2.787,8.213-3.335
			c2.613-0.484,5.248-0.855,7.872-1.279c1.113-0.18,2.222-0.391,3.338-0.549c3.241-0.46,5.954-2.027,8.288-4.197
			c2.524-2.347,4.652-5.102,7.601-7.237c-0.961-1.312-1.887-2.425-2.638-3.645c-0.757-1.23-1.372-2.551-1.992-3.859
			c-0.618-1.302-0.833-2.729-1.454-4.482c0.819,0.446,1.247,0.679,1.729,0.941c0.027-0.235,0.099-0.395,0.048-0.48
			c-1.044-1.707-1.376-3.582-1.4-5.551c-0.012-1.023-0.14-2.046-0.235-3.333c0.613,0.529,1.007,0.869,1.588,1.37
			c0.042-0.527,0.128-0.878,0.086-1.214c-0.216-1.756-0.252-3.497,0.144-5.263c0.431,0.036,0.727,0.061,1.1,0.091
			c0.1-0.84,0.15-1.698,0.318-2.532c0.158-0.787,0.42-1.556,0.674-2.321c0.274-0.828,0.592-1.643,0.983-2.719
			c0.412,0.491,0.667,0.793,0.922,1.097c0.131-0.082,0.35-0.14,0.375-0.246c0.317-1.325,0.607-2.656,0.908-4.007
			c0.996,0.022,0.663,1.278,1.57,1.416c0.161-0.927,0.11-1.968,0.527-2.766c0.952-1.822,0.713-3.435-0.088-5.236
			c-0.542-1.221-0.613-2.656-0.853-4.003c-0.051-0.283,0.077-0.597,0.144-1.041c2.354,0.679,4.589,1.337,6.835,1.963
			c0.761,0.212,1.5,0.501,2.354,0.182c0.37-0.138,0.921,0.091,1.352,0.253c2.251,0.845,4.49,1.722,6.758,2.597
			c0.394-0.815-0.645-1.097-0.532-1.758c0.12,0.011,0.27-0.015,0.378,0.041c0.999,0.517,1.964,1.107,2.99,1.561
			c1.523,0.673,2.762,1.636,3.62,3.074c0.826,1.385,1.66,2.764,2.485,4.149c0.232,0.39,0.449,0.789,0.798,1.127
			c-0.76-2.411-2.207-4.576-2.562-7.356c1.13,0.236,1.794,0.904,2.524,1.427c0.719,0.515,1.452,1.024,2.099,1.622
			c0.693,0.641,1.293,1.382,2.101,2.263c0.214-0.743,0.354-1.227,0.493-1.71c0.223,0.064,0.407,0.06,0.486,0.148
			c1.66,1.863,3.308,3.737,4.959,5.608c0.555-0.135,1.014-0.247,1.462-0.356c3.85,2.459,3.85,2.459,5.529,7.186
			c0.514,0.114,0.426-0.323,0.489-0.573c0.611-2.406,1.94-4.41,3.522-6.262c0.784-0.918,1.649-1.768,2.456-2.667
			c0.484-0.539,0.935-1.109,1.39-1.673c1.041-1.292,1.823-2.664,1.145-4.498c8.506,1.06,16.848,1.234,25.184,0.039
			c2.392-0.343,4.767-0.798,7.153-1.187c1.379-0.225,2.729-0.088,4.049,0.378c1.835,0.648,2.95,1.892,3.233,3.84
			c0.352,2.42-0.143,4.646-1.547,6.656c-1.163,1.666-2.641,3.029-4.166,4.355c-0.971,0.844-1.926,1.718-2.799,2.66
			c-1.277,1.376-2.086,3.019-2.694,4.807c-1.135,3.34-1.475,6.733-1.235,10.24c0.324,4.755,0.873,9.456,2.188,14.061
			c1.187,4.157,3.01,7.99,5.45,11.534c1.47,2.135,3.225,4.016,5.361,5.518c0.172,0.121,0.288,0.321,0.539,0.61
			c-0.35,0.052-0.585,0.165-0.747,0.098c-0.819-0.338-1.68-0.628-2.409-1.113c-1.031-0.684-2.153-1.087-3.312-1.429
			c-4.731-1.399-9.185-3.504-13.722-5.394c-1.355-0.564-2.502-1.456-3.5-2.533c-0.424-0.458-0.843-0.92-1.459-1.593
			c-0.076,1.757,0.652,2.863,1.613,3.798c1.441,1.403,2.885,2.825,4.471,4.053c4.463,3.455,9.386,5.888,15.064,6.709
			c2.796,0.404,5.57,0.863,8.404,0.812c2.318-0.041,4.475,0.52,6.42,1.805c1.813,1.198,3.659,2.354,5.408,3.642
			c3.048,2.244,5.989,4.633,9.055,6.851c2.303,1.666,4.378,3.545,6.209,5.708c1.926,2.276,3.851,4.554,5.818,6.794
			c0.328,0.374,0.583,1.035,1.488,0.786c-0.078-0.428-0.061-0.911-0.254-1.286c-0.847-1.644-1.607-3.361-2.668-4.861
			c-3.32-4.695-7.212-8.869-11.793-12.381c-2.301-1.764-4.561-3.583-6.829-5.389c-0.356-0.284-0.657-0.637-1.228-1.199
			c2.051,0.19,3.678-0.208,5.297-0.62c2.187-0.556,4.368-1.135,6.543-1.733c3.527-0.971,6.757-2.598,9.9-4.44
			c2.433-1.426,4.902-2.795,7.395-4.113c2.596-1.373,5.376-2.098,8.325-2.287c3.665-0.236,7.025,0.787,10.26,2.31
			c3.134,1.475,6.183,3.129,9.312,4.614c3.349,1.589,6.744,3.08,10.125,4.599c2.795,1.256,5.69,1.575,8.739,1.149
			c3.239-0.452,6.309-1.281,9.091-3.048c0.611-0.389,1.251-0.739,1.9-1.063c2.346-1.171,4.769-1.968,7.45-1.462
			c0.222,0.042,0.467-0.043,0.889-0.089c-0.331-0.636-0.568-1.214-0.908-1.723c-2.036-3.048-3.414-6.342-4.306-9.919
			c-0.739-2.959-1.961-5.797-2.973-8.687c-0.373-1.065-0.837-2.105-1.124-3.192c-0.494-1.876-1.6-3.314-2.986-4.592
			c-1.007-0.929-1.989-1.884-3.006-2.801c-1.274-1.148-2.248-2.503-3.064-4.01c-3.651-6.745-7.787-13.185-12.36-19.338
			c-2.929-3.941-6.52-7.106-11.035-9.181c-3.35-1.54-6.876-2.261-10.515-2.547c-4.275-0.335-8.532-0.171-12.776,0.45
			c-3.46,0.506-6.707,1.587-9.865,3.107c-4.201,2.023-7.841,4.738-11.108,8.031c-2.202,2.219-3.879,4.721-4.759,7.737
			c-0.174,0.595-0.422,1.168-0.664,1.828c-0.285-0.158-0.535-0.223-0.67-0.384c-2.4-2.863-5.172-5.284-8.35-7.258
			c-1.503-0.934-2.915-2.012-4.376-3.014c-0.581-0.399-1.183-0.769-1.748-1.134c-0.591,0.469-0.284,0.962-0.232,1.394
			c0.245,2.009-0.305,3.837-1.232,5.574c-0.458,0.858-1.1,1.553-1.905,2.146c-2.16,1.59-4.401,2.943-7.123,3.184
			c-0.289-0.395-0.128-0.642,0.134-0.867c1.283-1.103,2.517-2.269,3.859-3.296c1.916-1.467,3.001-3.302,3.073-5.747
			c0.04-1.367,0.202-2.732,0.34-4.095c0.047-0.461,0.193-0.912,0.302-1.403c4.729,0.406,9.055,1.809,13.511,4.186
			c-0.253-0.639-0.311-0.904-0.45-1.117c-3.017-4.613-7.206-7.744-12.295-9.753c-3.823-1.509-7.613-3.103-11.45-4.574
			c-1.878-0.72-3.814-1.305-5.754-1.839c-0.998-0.275-2.064-0.41-3.101-0.421c-2.567-0.027-4.85,1.702-5.621,4.135
			c-0.142,0.449-0.263,0.905-0.387,1.335c-0.705,0.091-0.716-0.339-0.662-0.713c0.401-2.776,2.02-4.685,4.402-6
			c1.891-1.044,3.958-1.291,6.085-1.217c2.851,0.099,5.597,0.798,8.279,1.65c4.773,1.517,9.587,2.816,14.541,3.581
			c0.791,0.122,1.551,0.436,2.333,0.626c0.613,0.148,1.24,0.242,1.77,0.342c0.942-0.66,0.764-1.698,1.228-2.448
			c0.607-0.065,0.451,0.48,0.595,0.772c0.207,0.421,0.384,0.857,0.589,1.279c0.022,0.046,0.14,0.046,0.324,0.099
			c0.731-0.363,0.585-1.411,1.252-1.889c0.932-0.242,1.007,0.895,1.682,1.076c0.113-0.091,0.292-0.162,0.329-0.277
			c0.217-0.69,0.368-1.402,0.606-2.085c0.277-0.796,0.795-0.809,1.404-0.063c0.145,0.178,0.268,0.374,0.48,0.673
			c0.655-0.903,0.713-2.237,2.215-2.449c0.246,0.422,0.545,0.935,0.837,1.435c0.2-0.058,0.416-0.054,0.483-0.152
			c0.492-0.723,1.112-1.369,1.191-2.329c0.051-0.619,0.6-0.661,1.172-0.669c0.182,0.499,0.37,1.016,0.604,1.655
			c0.512-0.612,0.963-1.15,1.386-1.656c0.608,0.222,0.88,1.076,1.648,0.525c0.062-0.045,0.511,0.45,0.842,0.75
			c0.4-0.364,0.792-0.72,1.196-1.088c0.792,0.512-0.028,1.28,0.435,1.784c0.658-0.119,1.328-0.241,1.948-0.353
			c0.615,0.922,0.157,1.789,0.137,2.775c0.737-0.682,1.369-1.266,2.011-1.86c0.95,1.186-0.102,2.008-0.563,3.131
			c0.811-0.414,1.354-0.691,1.891-0.965c0.134,0.224,0.3,0.391,0.266,0.459c-0.35,0.705-0.733,1.394-1.112,2.098
			c0.61,0.391,0.87-0.136,1.227-0.372c0.313-0.207,0.631-0.406,1.081-0.696c0.448,1.2-0.478,1.936-0.667,2.985
			c2.329-0.174,4.311-1.115,6.412-1.478c2.134-0.369,4.294-0.592,6.644-0.906c-0.349-0.452-0.591-0.817-0.883-1.135
			c-3.066-3.344-6.488-6.263-10.367-8.631c-2.996-1.829-6.262-2.978-9.686-3.631c-4.188-0.799-7.988,0.335-11.481,2.645
			c-0.873,0.577-1.694,1.234-2.524,1.873c-2.063,1.586-4.304,2.837-6.794,3.616c-0.294,0.092-0.605,0.129-1.202,0.252
			c0.238-0.48,0.316-0.763,0.488-0.966c2.029-2.403,4.185-4.678,6.52-6.794c6.303-5.715,13.429-6.838,21.348-4.056
			c6.336,2.226,11.485,6.117,15.816,11.148c1.355,1.574,2.939,3.004,3.696,5.155c0.648,0.025,1.278,0.094,1.904,0.065
			c3.506-0.162,6.91,0.424,10.26,1.382c2.17,0.62,4.32,1.313,6.479,1.973c0.462,0.141,0.916,0.327,1.389,0.417
			c2.045,0.387,3.719-0.713,4.095-2.775c0.141-0.775,0.053-1.599,0.016-2.399c-0.026-0.561-0.21-1.118-0.209-1.676
			c0.004-1.812,1.4-2.99,3.209-2.688c2.431,0.405,4.355,1.708,5.746,3.685c0.969,1.377,1.797,2.871,2.533,4.388
			c0.984,2.029,1.87,4.11,2.704,6.206c0.882,2.218,2.392,3.776,4.523,4.798c2.116,1.015,4.313,1.794,6.573,2.418
			c2.876,0.793,5.718,1.67,8.439,2.939c3.514,1.639,5.921,4.133,6.663,8.021c0.179,0.937,0.185,1.907,0.273,2.891
			c1.437,0.866,2.261,1.076,4.617,1.129c0.239-0.417,0.547-0.876,0.78-1.371c1.293-2.756,1.743-5.686,1.678-8.7
			c-0.016-0.715-0.205-1.434-0.381-2.134c-0.186-0.742-0.672-1.276-1.376-1.59c-0.368-0.164-0.738-0.325-1.119-0.456
			c-2.617-0.898-4.991-2.257-7.22-3.869c-6.121-4.428-10.897-9.958-14.161-16.83c-1.773-3.733-3.32-7.517-4.314-11.522
			c-0.271-1.093-0.478-2.205-0.658-3.317c-0.139-0.861-0.19-1.736-0.293-2.721c0.387,0.145,0.646,0.242,1.099,0.413
			c-0.295-1.238-0.623-2.361-0.817-3.507c-0.187-1.109-0.297-2.239-0.328-3.363c-0.033-1.193,0.067-2.389,0.111-3.632
			c0.515,0.148,0.86,0.248,1.261,0.364c0.392-2.397,0.582-4.803,1.321-7.364c0.481,0.576,0.809,0.969,1.254,1.502
			c0.809-1.083,0.864-2.341,1.366-3.401c0.483-1.019,0.954-2.049,1.331-3.11c0.395-1.113,0.67-2.267,0.985-3.361
			c0.667-0.085,0.773,0.379,0.961,0.695c1.313,2.22,2.612,4.448,3.909,6.677c2.163,3.719,5.05,6.877,7.814,10.133
			c1.25,1.472,2.395,3.033,3.631,4.518c1.161,1.394,1.871,2.985,2.358,4.717c1.443,5.132,2.41,10.361,3.131,15.633
			c0.917,6.706,1.847,13.408,3.184,20.046c0.06,0.301,0.232,0.579,0.352,0.868l-0.051-0.074c0.113,0.878,0.228,1.756,0.337,2.634
			c0.301,2.414,0.308,4.828-0.194,7.212c-0.197,0.935-0.57,1.841-0.934,2.731c-0.301,0.737-0.706,1.432-1.148,2.313
			c2.733,0.729,5.406,1.191,8.059,1.699c2.594,0.497,5.227,0.793,8.02,1.203c-0.309,0.221-0.529,0.409-0.776,0.55
			c-2.707,1.537-3.858,4.047-4.175,6.971c-0.346,3.196,0.19,6.279,1.798,9.1c0.874,1.534,1.847,3.015,2.838,4.477
			c0.293,0.432,0.8,0.718,1.384,1.222c0.209-0.56,0.364-0.896,0.462-1.249c1.181-4.281,2.759-8.415,4.493-12.498
			c1.117-2.632,2.855-4.855,4.535-7.11c2.31-3.102,4.759-6.105,7.544-8.796c7.45-7.199,16.286-10.797,26.731-10.049
			c0.87,0.062,1.723,0.455,2.587,0.47c0.866,0.014,1.732-0.321,2.606-0.382c1.282-0.09,2.572-0.079,3.858-0.093
			c0.227-0.003,0.577,0.007,0.66,0.141c0.393,0.633,0.927,0.479,1.494,0.396c1.601-0.236,3.205-0.301,4.92,0.068
			c0.111,0.297,0.245,0.654,0.379,1.011c0.148,0.027,0.338,0.128,0.439,0.071c2.369-1.325,5.05-1.609,7.613-2.266
			c2.017-0.517,4.071-0.886,6.44-1.392c-1.185,1.694-1.876,3.298-2.321,4.991c-0.427,1.624-0.767,3.271-1.19,5.1
			c0.572-0.22,1.029-0.396,1.496-0.575c0.058,0.267,0.147,0.428,0.111,0.553c-0.627,2.164-1.305,4.314-1.893,6.489
			c-0.276,1.022-0.571,1.994-1.831,2.732c1.548,0.426,2.194-0.711,3.334-0.897c-0.188,1.174-1.011,1.855-1.503,2.691
			c-0.571,0.97-1.202,1.909-1.867,2.818c-0.614,0.838-1.307,1.617-1.98,2.44c0.25,0.5,0.645,0.275,0.98,0.114
			c1.004-0.485,1.993-1.001,3.074-1.548c-1.241,2.932-3.473,6.198-5.66,8.331c0.043,0.432,0.346,0.478,0.674,0.422
			c0.676-0.117,1.347-0.26,2.54-0.495c-2.389,2.285-4.056,4.554-7.052,5.884c1.062,0.203,1.73,0.331,2.335,0.447
			c0.323,0.883-0.158,1.358-0.597,1.819c-2.563,2.692-5.271,5.212-8.485,7.132c-0.467,0.279-0.911,0.598-1.572,1.035
			c0.801,0.529,1.415,0.934,2.199,1.452c-1.864,1.071-3.653,1.773-5.434,2.44c-1.954,0.732-3.972,1.333-6.003,1.814
			c-5.696,1.349-11.469,1.557-17.28,0.928c-2.481-0.268-4.968-0.484-7.447-0.774c-0.957-0.112-1.905-0.33-2.842-0.563
			c-2.173-0.54-4.292-1.252-6.5-2.062c0.785-1.744,1.831-3.134,3.22-4.254c3.575-2.881,7.17-5.736,10.748-8.614
			c1.632-1.312,3.282-2.605,4.846-3.995c1.177-1.047,2.455-1.425,3.997-1.21c1.908,0.266,3.808,0.418,5.601,1.303
			c0.904,0.446,2.028,0.587,3.058,0.609c4.932,0.105,9.818-0.284,14.571-1.731c0.225-0.068,0.427-0.21,0.974-0.485
			c-0.573-0.046-0.827-0.122-1.056-0.076c-5.233,1.065-10.425,0.459-15.609-0.38c-1.585-0.257-3.165-0.555-4.739-0.873
			c-0.359-0.073-0.684-0.31-0.994-0.456c0.056-0.288,0.038-0.478,0.123-0.588c1.24-1.6,2.303-3.301,3.014-5.205
			c0.376-1.007,1.019-1.59,2.166-1.535c4.624,0.222,8.658-1.64,12.588-3.722c2.489-1.318,4.915-2.782,6.906-4.836
			c0.775-0.8,1.534-1.616,2.301-2.429c0.018-0.147,0.048-0.29,0.045-0.432c-0.002-0.073-0.063-0.145-0.098-0.218
			c-0.011,0.073-0.038,0.148-0.03,0.22c0.016,0.149,0.049,0.297,0.075,0.445c-0.403-0.181-0.745-0.152-1.07,0.201
			c-0.654,0.71-1.27,1.476-2.019,2.073c-4.273,3.409-9.04,5.872-14.322,7.316c-1.34,0.366-2.693,0.417-4.25,0.235
			c0.145-0.502,0.178-0.98,0.402-1.338c1.624-2.595,3.25-5.192,5.436-7.375c0.272-0.271,0.486-0.6,0.914-1.137
			c-0.829,0.017-1.235,0.366-1.608,0.667c-3.446,2.785-6.904,5.557-10.3,8.402c-1.542,1.292-3.029,2.669-4.401,4.138
			c-1.309,1.402-2.436,2.974-3.753,4.607c-0.09-1.182-0.158-2.266-0.258-3.346c-0.111-1.203-0.263-2.403-0.374-3.606
			c-0.103-1.123-0.176-2.249-0.263-3.373c-0.087-1.124-0.185-2.248-0.257-3.373c-0.071-1.125-0.144-2.252-0.164-3.379
			c-0.022-1.208,0.043-2.417,0.022-3.624c-0.019-1.089,0.133-2.186,0.183-3.517c-0.39,0.337-0.569,0.415-0.586,0.519
			c-0.195,1.192-0.463,2.383-0.523,3.584c-0.171,3.378-0.254,6.761-0.372,10.142c-0.062,1.77-0.138,3.541-0.18,5.311
			c-0.035,1.5-0.507,2.86-1.325,4.086c-0.848,1.27-1.704,2.547-2.683,3.715c-2.01,2.4-4.103,4.73-6.237,7.174
			c-0.085-1.243-0.141-2.413-0.251-3.577c-0.106-1.123-0.306-2.237-0.393-3.361c-0.093-1.204-0.061-2.417-0.16-3.62
			c-0.09-1.089,0.143-2.215-0.27-3.512c-0.628,0.969-0.679,1.855-0.762,2.704c-0.336,3.446-0.63,6.897-0.936,10.346
			c-0.043,0.482-0.102,0.964-0.099,1.446c0.015,2.897-1.159,5.316-3.013,7.445c-2.881,3.307-5.064,7.051-7.061,10.934
			c-0.857,1.666-1.057,3.303-0.797,5.13c0.477,3.347,0.75,6.723,1.222,10.071c0.326,2.313-0.008,4.515-0.845,6.635
			c-0.766,1.938-1.701,3.809-2.625,5.85c0.297,0.109,0.629,0.303,0.981,0.352c6.328,0.868,12.52,2.313,18.55,4.416
			c2.682,0.935,5.086,2.441,7.394,4.056c1.035,0.724,1.951,1.699,2.719,2.713c3.531,4.662,6.144,9.821,8.126,15.316
			c3.482,9.652,5.014,19.639,5.177,29.861c0.047,2.988-0.098,5.978-0.983,8.855c-0.495,1.608-1.034,3.246-1.854,4.701
			c-2.149,3.812-5.401,5.909-9.904,5.644c-2.006-0.118-4.003-0.383-6.004-0.586c-0.631-0.064-1.261-0.146-2.132-0.248
			c0.214,0.532,0.276,0.922,0.493,1.184c0.972,1.178,1.914,2.394,3.003,3.457c2.142,2.092,4.635,3.723,7.215,5.235
			c1.681,0.985,3.441,1.296,5.343,0.988c0.772-0.125,1.55-0.207,2.603-0.345c-0.289,0.478-0.419,0.746-0.595,0.978
			c-1.701,2.246-3.367,4.52-5.128,6.718c-1.711,2.135-3.451,4.256-5.311,6.26c-1.814,1.954-3.917,3.6-6.266,4.895
			c-1.835,1.011-3.637,2.101-5.542,2.962c-5.712,2.582-10.841,6.082-15.551,10.138c-6.476,5.577-13.974,8.938-22.217,10.636
			c-6.499,1.339-13.109,1.533-19.715,0.621c-1.915-0.264-3.837-0.486-5.74-0.821c-4.111-0.722-7.89-2.28-11.239-4.786
			c-0.83-0.621-1.62-1.358-2.246-2.18c-1.66-2.18-3.234-4.426-4.367-6.945c-0.264-0.587-0.52-1.192-0.883-1.717
			c-2.889-4.173-5.778-8.347-8.72-12.483c-1.788-2.515-3.929-4.687-6.59-6.31c-0.474-0.289-0.9-0.672-1.298-1.062
			c-0.125-0.123-0.09-0.41-0.163-0.814c0.578,0.059,1.035,0.095,1.489,0.155c4.871,0.639,9.727,1.474,14.618,1.857
			c3.189,0.25,6.448,0.03,9.642-0.301c9.875-1.022,18.939-4.399,27.303-9.731c2.656-1.694,5.232-3.475,7.615-5.541
			c4.621-4.004,7.007-9.147,7.768-15.119c0.111-0.872,0.096-1.775,0.02-2.654c-0.354-4.093-0.747-8.183-1.135-12.273
			c-0.044-0.468-0.148-0.93-0.318-1.969c-0.273,0.948-0.448,1.332-0.486,1.729c-0.098,1.026,0.071,2.094-0.486,3.041
			c-0.432,0.099-0.814,0.186-1.197,0.273c0.046,0.143,0.051,0.354,0.139,0.397c0.764,0.376,1.066,0.933,0.725,1.922
			c-0.269,0.099-0.628,0.227-0.983,0.364c-0.354,0.137-0.705,0.283-1.083,0.436c0.255,0.777,0.919,0.745,1.347,1.037
			c0.577,0.394,0.638,0.874,0.275,1.602c-1.024,0.006-2.122,0.012-3.512,0.021c0.545,0.481,0.891,0.86,1.306,1.134
			c0.466,0.308,1.027,0.474,1.486,0.791c0.511,0.353,0.675,0.878,0.326,1.624c-1.663-0.303-3.37-0.614-5.117-0.932
			c0.079,0.895,0.83,0.886,1.268,1.199c0.515,0.368,1.139,0.591,1.73,0.844c0.581,0.249,1.179,0.457,1.719,0.664
			c0.091,0.648-0.31,0.867-0.694,0.848c-0.634-0.032-1.269-0.188-1.889-0.35c-1.394-0.364-2.778-0.765-4.62-1.276
			c0.437,0.599,0.554,0.898,0.773,1.038c1.218,0.779,2.464,1.515,3.693,2.278c0.232,0.144,0.429,0.345,0.881,0.715
			c-0.956,0.245-1.539-0.031-2.123-0.16c-0.629-0.139-1.252-0.311-1.875-0.479c-0.701-0.189-1.406-0.366-2.095-0.59
			c-0.612-0.199-1.198-0.482-1.811-0.679c-0.553-0.178-1.057-0.741-1.821-0.299c0.933,0.73,1.805,1.384,2.645,2.077
			c0.786,0.648,1.538,1.337,2.534,2.209c-2.862-0.427-5.319-1.326-8.197-2.074c0.843,1.052,1.819,1.321,2.518,1.935
			c0.652,0.573,1.441,0.998,1.934,1.7c-0.184,0.486-0.513,0.41-0.813,0.32c-1.467-0.44-2.929-0.899-4.395-1.342
			c-0.844-0.255-1.694-0.49-2.58-0.746c-0.238,0.796,0.418,0.822,0.723,1.04c1.241,0.886,2.531,1.702,3.771,2.59
			c0.28,0.201,0.431,0.583,0.871,1.206c-3.029-0.627-5.627-1.31-8.198-2.178c-0.244,0.682,0.317,0.672,0.559,0.842
			c0.854,0.604,1.753,1.144,2.613,1.74c0.51,0.353,1.063,0.699,1.17,1.353c-0.071,0.127-0.092,0.222-0.148,0.251
			c-0.064,0.032-0.164,0.025-0.237,0.001c-2.367-0.783-4.733-1.571-7.1-2.353c-0.071-0.023-0.156-0.001-0.425,0.002
			c1.461,1.789,3.888,2.316,4.986,4.331c-0.366,0.49-0.766,0.166-1.067,0.044c-1.789-0.729-3.56-1.504-5.337-2.264
			c-0.736-0.315-1.469-0.634-2.206-0.95c-0.129-0.152-0.239-0.327-0.392-0.446c-0.048-0.038-0.212,0.074-0.323,0.117
			c0.053,0.049,0.099,0.124,0.161,0.142c0.203,0.059,0.411,0.098,0.617,0.145c0.136,0.973,1.077,1.08,1.684,1.527
			c1.617,1.192,3.277,2.327,4.908,3.502c0.312,0.225,0.566,0.53,1.261,1.194c-1.718-0.467-2.74-1.158-3.863-1.576
			c-1.13-0.42-2.21-0.974-3.334-1.414c-1.157-0.453-2.216-1.194-3.867-1.42c2.529,2.398,5.37,3.82,7.548,5.964
			c-0.166,0.577-0.521,0.496-0.79,0.376c-3.751-1.678-7.876-2.329-11.549-4.215c-0.052-0.027-0.137,0.013-0.434,0.049
			c2.374,1.999,4.632,3.9,6.99,5.885c-0.289,0.171-0.497,0.394-0.626,0.355c-3.701-1.119-7.405-2.237-10.757-4.241
			c-0.202-0.121-0.373-0.293-0.559-0.442c-0.41-0.118-0.819-0.236-1.228-0.354c-0.008,0.034-0.016,0.068-0.023,0.102
			c0.419,0.089,0.837,0.179,1.256,0.268c-0.197,0.323-0.136,0.584,0.161,0.82c1.262,1.001,2.509,2.021,3.779,3.012
			c1.073,0.838,1.987,1.815,2.854,2.804c-0.396,0.535-0.653,0.212-0.907,0.118c-1.053-0.393-2.09-0.836-3.156-1.188
			c-2.134-0.705-4.284-1.363-6.489-2.059c1.512,1.741,3.509,2.934,5.145,4.447c-0.071,0.526-0.382,0.564-0.696,0.438
			c-1.567-0.63-3.126-1.28-4.684-1.932c-0.593-0.248-1.17-0.534-1.767-0.772c-0.273-0.109-0.577-0.142-1.089-0.261
			c0.425,1.571,1.99,2.027,2.552,3.271c-1.458,0.101-2.094-0.029-4.134-0.94c-1.235-0.551-2.443-1.164-3.941-1.883
			c0.844,1.759,2.717,2.198,3.298,3.707c-0.12,0.149-0.16,0.227-0.224,0.27c-0.058,0.04-0.153,0.076-0.213,0.056
			c-2.134-0.695-4.265-1.397-6.5-2.132c0.147,0.869,1.391,0.732,1.382,1.755c-1.589-0.209-3.151-0.497-4.725-0.599
			c-1.601-0.104-3.222,0.072-4.821-0.047c-3.822-0.284-7.416-1.446-10.892-3.024c-3.52-1.598-7.142-2.999-10.379-5.152
			c-1.673-1.113-3.255-2.364-4.867-3.568c-0.101-0.076-0.104-0.284-0.156-0.442c0.099-0.469,0.479-0.33,0.759-0.298
			c2.482,0.28,4.965,0.549,7.441,0.877c4.836,0.641,9.645,0.307,14.446-0.336c7.394-0.991,14.456-3.233,21.398-5.856
			c5.201-1.965,10.331-4.111,15.35-6.523c4.381-2.105,8.397-4.789,12.403-7.498c7.711-5.215,13.884-11.947,19.305-19.448
			c2.796-3.868,5.193-7.95,7.239-12.251c1.31-2.755,2.027-5.591,1.366-8.667c-0.466-2.165-1.418-4.1-2.58-5.956
			c-0.556-0.887-1.112-1.776-1.607-2.697c-0.128-0.238-0.035-0.6-0.022-0.904c0.002-0.047,0.113-0.09,0.174-0.135
			c0.148,0.023,0.378-0.008,0.433,0.076c0.667,1.026,1.676,1.422,2.815,1.679c2.611,0.591,5.271,0.663,7.922,0.848
			c1.526,0.106,3.058,0.152,4.58,0.303c0.876,0.087,1.743,0.301,2.599,0.518c0.283,0.072,0.669,0.281,0.749,0.516
			c0.389,1.141,1.227,1.062,2.156,0.96c0.663-0.073,1.359-0.606,2.148,0.145c-0.679,0.571-1.331,1.119-1.92,1.614
			c0.051,0.611,0.399,0.592,0.696,0.513c1.048-0.278,2.086-0.59,3.239-0.922c-0.21,1.28-1.686,1.492-2.052,2.501
			c0.748,0.859,1.775,0.034,2.605,0.617c-0.176,0.296-0.331,0.557-0.496,0.834c0.836,0.858,1.795-0.252,2.812,0.186
			c-0.302,0.941-1.53,0.831-1.927,1.784c0.298,0.069,0.576,0.202,0.839,0.179c0.475-0.041,0.943-0.176,1.65-0.32
			c-0.179,0.494-0.218,0.906-0.441,1.153c-0.424,0.47-0.952,0.845-1.436,1.259c0.307,0.574,0.736,0.294,1.063,0.214
			c0.624-0.153,1.214-0.444,1.839-0.589c0.353-0.082,0.747,0.01,1.345,0.031c-0.541,1.126-1.405,1.519-2.192,2.002
			c-0.753,0.462-1.491,0.949-2.267,1.445c1.105,0.429,2.131,0.475,3.101-0.035c0.915-0.481,1.754-1.106,2.936-1.867
			c-0.436,0.871-0.705,1.408-1.014,2.024c0.804,0.414,1.495,0.77,2.199,1.133c-1.066,0.825-1.69,1.033-4.218,1.336
			c-1.511,0.182-3.028,0.321-4.911,0.518c1.359,0.793,2.56,0.461,3.649,0.685c1.102,0.227,2.232,0.317,3.347,0.485
			c1.142,0.173,2.356-0.034,3.553,0.538c-1.765,1.229-3.984,1.623-10.93,1.966c4.31,1.468,8.426,2.015,13.059,2.716
			c-0.895,0.276-1.283,0.456-1.687,0.512c-3.674,0.505-7.357,0.89-11.074,0.864c-0.535-0.004-1.07,0.096-1.608,0.262
			c4.597,1.468,9.394,2.013,14.345,3.437c-1.113,0.547-2.001,0.454-2.829,0.587c-0.953,0.153-1.916,0.248-2.879,0.326
			c-0.882,0.071-1.769,0.105-2.654,0.119c-0.966,0.015-1.933-0.013-2.9-0.019c-0.857-0.006-1.714-0.008-3.086-0.014
			c1.058,0.811,1.855,0.836,2.567,1.044c0.696,0.203,1.407,0.354,2.115,0.515c0.786,0.18,1.576,0.342,2.362,0.518
			c0.787,0.177,1.572,0.359,2.356,0.544c0.706,0.166,1.419,0.312,2.114,0.516c0.732,0.215,1.447,0.49,2.241,0.763
			c-0.509,0.676-1.091,0.611-1.621,0.621c-2.174,0.041-4.348,0.052-6.522,0.082c-1.53,0.021-3.06,0.058-4.59,0.082
			c-0.417,0.007-0.802,0.059-1.018,0.484c-0.347-0.147-0.69-0.292-1.033-0.437c-0.017,0.043-0.035,0.086-0.052,0.129
			c0.358,0.103,0.715,0.206,1.073,0.309c3.39,0.72,6.777,1.452,10.171,2.153c1.649,0.341,3.311,0.622,4.958,0.928
			c-0.012,0.718-0.503,0.674-0.825,0.68c-2.898,0.056-5.797,0.109-8.695,0.098c-2.811-0.011-5.622-0.101-8.488-0.157
			c0.086,0.505,0.55,0.43,0.847,0.54c0.375,0.14,0.782,0.191,1.173,0.287c5.622,1.385,11.243,2.772,16.838,4.151
			c0.021,0.621-0.36,0.525-0.634,0.516c-3.3-0.101-6.6-0.218-9.9-0.322c-2.721-0.086-5.443-0.16-8.299-0.243
			c0.138,0.754,0.651,0.752,1.056,0.845c3.457,0.794,6.928,1.533,10.373,2.377c2.107,0.516,4.177,1.187,6.254,1.906
			c-5.776-0.178-11.543-0.399-17.298-0.209c-0.031,0.147-0.074,0.231-0.057,0.303c0.014,0.06,0.086,0.122,0.148,0.154
			c0.142,0.073,0.29,0.14,0.442,0.189c1.533,0.499,3.064,1.005,4.603,1.486c0.615,0.192,1.245,0.337,1.872,0.489
			c0.862,0.208,1.725,0.413,2.592,0.6c0.704,0.151,1.414,0.271,2.12,0.414c0.04,0.008,0.062,0.101,0.164,0.279
			c-0.307,0.111-0.584,0.288-0.868,0.301c-2.17,0.094-4.341,0.147-6.511,0.233c-1.445,0.057-2.896,0.081-4.33,0.247
			c-0.679,0.079-1.495,0.255-1.627,1.173c-0.094,0.653,0.473,1.194,1.651,1.454c1.098,0.242,2.228,0.338,3.339,0.523
			c1.905,0.316,3.809,0.645,5.709,0.987c0.277,0.05,0.535,0.199,1.046,0.396c-1.696,0.543-3.113-0.022-4.528,0.033
			c-1.367,0.054-2.738-0.031-4.106,0.006c-1.439,0.04-2.886,0.086-4.459,0.744c0.341,0.264,0.538,0.499,0.788,0.596
			c1.05,0.407,2.1,0.827,3.18,1.14c1.47,0.426,2.964,0.774,4.455,1.124c0.546,0.128,1.111,0.222,1.67,0.237
			c2.012,0.054,4.024,0.087,6.036,0.089c0.964,0.001,1.928-0.077,2.891-0.133c2.392-0.139,4.256-1.27,5.872-2.988
			c2.596-2.76,4.348-5.928,5.367-9.595c1.248-4.491,1.473-9.04,1.365-13.651c-0.165-7.084-1.612-13.909-4.041-20.543
			c-1.312-3.582-3.175-6.877-5.314-10.017c-1.15-1.688-2.715-2.978-4.389-4.111c-2.207-1.493-4.551-2.728-7.018-3.762
			c-6.812-2.855-13.929-3.993-21.263-3.805c-2.325,0.06-4.644,0.483-6.954,0.817c-0.517,0.075-1.049,0.396-1.47,0.734
			c-3.539,2.83-7.399,5.15-11.39,7.271c-0.487,0.259-0.954,0.554-1.483,0.864c1.647,3.813,2.478,7.695,2.34,11.783
			c-0.149,4.44-1.257,8.579-3.49,12.433c-1.947,3.36-4.178,6.517-6.742,9.42c-2.877,3.259-5.682,6.596-9.028,9.41
			c-1.617,1.36-3.4,2.444-5.336,3.283c-3.328,1.442-6.653,2.893-9.984,4.33c-0.582,0.251-1.187,0.449-1.957,0.738
			c0.083-0.385,0.058-0.678,0.177-0.758c4.842-3.283,8.161-7.964,11.534-12.584c1.811-2.48,3.151-5.239,4.473-8.005
			c2.814-5.887,5.236-11.962,8.421-17.672c0.902-1.617,1.86-3.203,2.766-4.818c0.214-0.381,0.325-0.82,0.632-1.621
			c-1.331,0.758-2.263,1.363-3.051,2.158c-1.994,2.009-3.772,4.193-5.135,6.686c-0.384,0.704-0.723,1.443-0.991,2.198
			c-2.024,5.708-4.391,11.275-7.351,16.554c-3.571,6.369-7.995,12.056-13.715,16.715c-4.324,3.522-2.742,2.676-8.022,4.069
			c-7.094,1.873-14.262,3.414-21.569,4.202c-7.552,0.815-15.018,0.469-22.119-2.469c-3.488-1.443-6.814-3.292-10.156-5.064
			c-2.422-1.284-4.699-2.821-6.755-4.654c-0.721-0.643-1.393-1.34-2.088-2.012c-0.747-0.721-0.997-1.587-0.94-2.627
			c0.274-5.012-0.145-9.984-1.062-14.911c-0.71-3.815-1.745-7.548-3.446-11.05c-2.198-4.525-3.689-9.289-4.891-14.146
			c-0.995-4.023-1.113-8.13-0.756-12.252c0.053-0.609,0.286-1.246-0.29-2.067c-0.838,2.49-1.505,4.783-2.005,7.13
			c-1.245,5.842-0.643,11.553,1.301,17.136c1.059,3.042,2.291,6.024,3.455,9.029c0.466,1.203,0.987,2.384,1.43,3.595
			c1.366,3.734,1.295,7.584,0.85,11.455c-0.045,0.395-0.188,0.783-0.317,1.163c-0.135,0.395-0.665,0.593-0.98,0.338
			c-0.625-0.504-1.227-1.038-1.816-1.583c-2.781-2.571-5.514-5.194-8.34-7.714c-3.8-3.389-8.108-6.089-12.306-8.943
			c-3.463-2.354-6.821-4.866-10.175-7.375c-3.004-2.248-4.999-5.242-5.981-8.856c-0.909-3.342-1.7-6.716-2.544-10.076
			c-0.255-1.014-0.485-2.036-0.779-3.039c-0.101-0.345-0.364-0.644-0.834-1.439c0.161,3.833,0.162,7.113,0.466,10.365
			c0.577,6.176,3.642,11.096,8.182,15.157c2.656,2.376,5.794,4.075,8.775,5.988c3.526,2.262,7.081,4.48,10.601,6.751
			c4.84,3.123,9.028,6.971,12.818,11.309c2.381,2.725,4.952,5.301,7.59,7.781c1.633,1.536,3.473,2.891,5.362,4.108
			c3.316,2.137,6.695,4.187,10.139,6.11c1.806,1.009,3.806,1.671,5.785,2.518c0.134,0.408-0.188,0.632-0.582,0.787
			c-2.701,1.06-5.394,2.143-8.111,3.16c-2.363,0.885-4.743,0.783-7.099-0.09c-0.68-0.252-1.352-0.531-2.042-0.754
			c-0.616-0.199-1.253-0.351-1.922,0.103c-0.134,0.466-0.285,0.987-0.436,1.511c-0.176-0.062-0.386-0.071-0.437-0.166
			c-0.456-0.843-0.884-1.702-1.262-2.441c-0.689-0.169-0.653,0.282-0.79,0.522c-0.158,0.277-0.229,0.614-0.422,0.857
			c-0.123,0.155-0.417,0.282-0.605,0.249c-0.193-0.034-0.462-0.25-0.503-0.431c-0.144-0.624-0.185-1.271-0.3-1.903
			c-0.096-0.53-0.239-1.052-0.419-1.824c-0.838,0.947-0.559,2.177-1.502,2.937c-0.782-1.091-0.783-2.549-1.9-3.391
			c-0.995,0.591-0.707,1.792-1.454,2.608c-0.196-0.179-0.521-0.331-0.565-0.542c-0.231-1.098-0.432-2.206-0.56-3.319
			c-0.081-0.706-0.016-1.429-0.017-2.199c-0.624,0.054-0.534,0.549-0.646,0.849c-0.17,0.45-0.257,0.931-0.374,1.401
			c-0.098,0.391-0.16,0.794-0.291,1.173c-0.118,0.341-0.307,0.658-0.541,1.143c-0.744-0.649-0.431-1.347-0.567-1.909
			c-0.17-0.704-0.282-1.423-0.407-2.138c-0.11-0.627-0.204-1.257-0.555-1.908c-0.217,1.207-0.434,2.415-0.721,4.016
			c-1.084-2.02-1.435-3.846-1.664-6.197c-0.763,1.933-1.104,3.516-2.302,4.895c-0.801-2.456,0.243-4.898-0.507-7.367
			c-1.884,1.51-2.303,3.794-3.548,5.434c-0.633,0.074-0.881-0.264-0.812-0.695c0.281-1.748,0.597-3.492,0.95-5.227
			c0.219-1.077,0.529-2.135,0.906-3.633c-1.907,2.529-3.527,4.677-5.316,7.049c-0.173-1.797,0.132-3.333,0.264-4.859
			c0.129-1.491,0.822-2.912,0.769-4.887c-1.646,1.827-1.924,4.095-3.66,5.323c-0.554-0.196-0.393-0.613-0.25-0.962
			c0.895-2.171,1.03-4.479,1.41-7.014c-0.972,0.573-1.067,1.455-1.518,2.064c-0.478,0.645-0.83,1.383-1.3,2.035
			c-0.456,0.632-0.776,1.408-1.511,1.741c-0.155-0.045-0.255-0.045-0.303-0.096c-0.041-0.043-0.047-0.151-0.027-0.217
			c0.372-1.231,0.799-2.447,1.114-3.691c0.393-1.558,0.695-3.139,1.119-5.093c-0.434,0.489-0.695,0.696-0.841,0.964
			c-0.619,1.137-1.344,2.174-2.248,3.12c-0.657,0.688-1.096,1.583-1.64,2.38c-0.159,0.233-0.346,0.447-0.592,0.762
			c-0.288-1.256-0.241-1.238,0.543-3.03c0.386-0.883,0.648-1.822,0.935-2.745c0.305-0.98,0.574-1.972,1.017-3.511
			c-1.178,1.165-1.808,2.07-2.547,2.873c-0.749,0.813-1.54,1.587-2.436,2.505c-0.355-0.776,0.162-1.182,0.31-1.648
			c0.146-0.461,0.328-0.91,0.498-1.362c0.199-0.528,0.405-1.054,0.606-1.581c0.172-0.452,0.361-0.899,0.507-1.36
			c0.17-0.538,0.343-1.081,0.435-1.635c0.071-0.43,0.019-0.88,0.024-1.575c-2.12,1.649-2.971,4.074-5.024,5.749
			c-0.343-0.891-0.116-1.509-0.082-2.098c0.032-0.56,0.153-1.117,0.264-1.67c0.127-0.632,0.288-1.258,0.432-1.886
			c0.126-0.548,0.249-1.096,0.367-1.612c-0.387-0.351-0.622-0.136-0.795,0.129c-0.484,0.74-0.914,1.517-1.423,2.239
			c-0.445,0.63-0.699,1.484-1.768,1.647c-0.55-1.136-0.011-2.34-0.164-3.49c-0.142-1.071-0.11-2.165-0.162-3.444
			c-1.244,0.925-1.113,2.593-2.555,3.264c-0.146-0.312-0.38-0.613-0.419-0.938c-0.067-0.555,0.014-1.126-0.015-1.688
			c-0.036-0.701-0.121-1.399-0.187-2.116c-1.063-0.035-0.666,1.096-1.334,1.25c-3.703-3.582-8.428-5.001-13.378-5.91
			c-4.266-0.783-8.504-0.452-12.732,0.319c-1.426,0.26-2.856,0.504-4.287,0.737c-0.207,0.034-0.432-0.04-1.003-0.104
			c1.615-0.957,2.951-1.749,4.229-2.507c-0.113-0.648-0.488-0.546-0.76-0.506c-1.593,0.231-3.182,0.49-4.773,0.74
			c-1.032,0.163-1.032,0.163-2.423-0.349c1.146-1.332,3.055-1.496,4.18-2.987c-0.793-0.276-1.42,0.198-2.075,0.288
			c-0.717,0.099-1.426,0.271-2.146,0.339c-0.682,0.065-1.334,0.53-2.259,0.221c0.913-1.646,2.597-2.255,3.719-3.435
			c-0.493-0.633-1.083-0.791-1.736-0.536c-1.049,0.409-2.074,0.878-3.113,1.312c-0.358,0.15-0.734,0.391-1.166-0.189
			c0.519-1.263,1.928-1.482,2.904-2.209c0.959-0.713,1.968-1.36,2.954-2.036c-0.378-0.549-0.785-0.503-1.172-0.388
			c-1.384,0.413-2.782,0.794-4.134,1.297c-0.733,0.272-1.368,0.236-2.213-0.136c1.29-0.869,2.485-1.673,3.68-2.479
			c0.735-0.496,1.473-0.988,2.202-1.492c0.486-0.336,0.442-0.807,0.298-1.295c0.281,0.122,0.552,0.304,0.846,0.356
			c0.861,0.152,1.15-0.09,1.49-1.259c-0.551,0.327-0.989,0.638-1.471,0.851C164.539,231.22,164.214,231.15,163.926,231.16z
			 M146.943,145.708c-0.122-0.02-0.243-0.04-0.365-0.059c0.01-0.009,0.024-0.028,0.031-0.025c0.114,0.038,0.227,0.078,0.341,0.118
			c0.038,0.31-0.038,0.718,0.132,0.914c1.703,1.967,3.603,3.743,6.117,4.575c3.297,1.093,6.692,1.779,10.192,1.773
			c2.178-0.004,4.347,0.065,6.477,0.601c0.268,0.067,0.633,0.25,0.842-0.258c-0.639-1.18-1.641-2.11-2.59-3.07
			c-2.103-2.127-3.328-4.663-4.045-7.564c-1.025-4.142-2.274-8.229-3.442-12.335c-0.092-0.324-0.3-0.616-0.453-0.923
			c0.025,2.053,0.405,4.005,0.605,5.974c0.206,2.034,0.465,4.089,0.061,6.412c-0.503-0.567-0.832-0.909-1.128-1.276
			c-1.063-1.317-2.107-2.648-3.176-3.96c-0.229-0.281-0.424-0.725-1.044-0.417c0.859,1.188,1.748,2.332,2.541,3.539
			c0.839,1.276,1.716,2.555,2.339,3.939c0.589,1.307,0.97,2.732,1.257,4.143c0.295,1.452,0.753,2.898,0.753,4.605
			c-1.104-0.132-2.072-0.158-2.993-0.379c-1.487-0.358-2.955-0.809-4.41-1.284c-2.792-0.912-5.237-2.46-7.532-4.258
			C147.217,146.312,147.11,145.971,146.943,145.708z M362.921,161.541c0.285,0.012,0.636,0.137,0.842,0.016
			c0.62-0.365,1.159-0.867,1.78-1.228c0.223-0.129,0.672-0.118,0.871,0.028c0.209,0.155,0.397,0.597,0.323,0.829
			c-0.361,1.142-0.81,2.257-1.234,3.379c-0.151,0.398-0.32,0.79-0.663,1.631c0.659-0.428,0.943-0.554,1.152-0.757
			c1.04-1.008,2.049-2.048,3.097-3.047c0.18-0.172,0.493-0.204,1.001-0.399c-0.603,1.941-1.173,3.597-0.92,5.469
			c1.426-0.276,1.542-2.001,2.689-2.535c0.147,0.242,0.295,0.37,0.287,0.488c-0.13,1.874-1.358,3.303-2.291,5.104
			c1.609-0.402,2.57-1.442,4.104-2.229c-0.499,1.19-1.18,1.773-1.645,2.49c-0.504,0.778-1.22,1.443-1.439,2.4
			c1.039,0.36,1.871-0.807,2.989-0.078c-1.199,1.507-3.153,2.045-4.405,3.588c1.48,0.465,2.499-0.893,3.729-0.632
			c0.204,0.788-0.35,0.996-0.721,1.207c-0.623,0.354-1.322,0.572-1.977,0.872c-0.074,0.034-0.075,0.23-0.113,0.363
			c0.611,0.423,1.505-0.392,1.998,0.533c-0.228,1.104-1.718,1.013-2.195,2.201c1.032,0.145,1.94,0.272,2.911,0.408
			c-0.536,0.516-0.971,0.962-1.437,1.374c-0.501,0.444-1.031,0.855-1.905,1.574c1.118-0.137,1.837,0.052,2.295-0.709l-0.013-0.056
			c0.005,0.704,0.011,1.408,0.015,1.997c-0.609,0.298-1.046,0.494-1.462,0.727c-0.121,0.068-0.184,0.241-0.388,0.527
			c0.474,0.027,0.847,0.023,1.212,0.075c0.394,0.057,0.963-0.239,1.105,0.476c-0.861,0.628-2.174,0.606-2.668,1.987
			c0.939,0.107,1.757,0.201,2.618,0.299c-0.617,1.419-2.321,0.617-3.054,1.732c1.19,0.2,1.307,0.246,2.169,0.874
			c-0.852,0.375-1.637,0.72-2.467,1.085c0.639,0.711,1.669-0.419,2.193,0.762c-0.688,0.262-1.367,0.521-2.248,0.856
			c0.574,0.513,0.994,0.887,1.433,1.279c-0.63,0.317-1.482-0.376-1.86,0.385c0.306,0.78,1.379-0.004,1.51,1.085
			c-0.771,0.28-1.524,0.514-2.239,0.833c-0.243,0.109-0.391,0.432-0.581,0.656c-0.122-0.034-0.243-0.068-0.365-0.103
			c0.021,0.1,0.042,0.199,0.063,0.299c0.092-0.087,0.184-0.175,0.276-0.262c0.71,0.482,1.702,0.022,2.669,0.766
			c-1.378,0.64-2.879,0.584-3.703,1.734c0.598,0.802,1.52-0.079,2.085,0.64c-0.582,1.785-2.653,1.281-3.682,2.394
			c0.427,0.607,1.114,0.481,1.707,0.603c0.322,0.066,0.658,0.097,0.574,0.663c-0.761,0.224-1.564,0.46-2.297,0.675
			c-0.109,1.092,1.13,0.617,1.235,1.524c-0.699,0.074-1.4,0.118-2.089,0.23c-0.818,0.134-1.069,0.986-0.497,1.636
			c0.299,0.34,0.624,0.658,1.035,1.09c-1.538,0.072-2.639,0.558-3.253,1.844c0.264,0.354,0.499,0.668,0.733,0.981
			c-0.138,0.12-0.235,0.258-0.366,0.31c-1.232,0.486-1.229,0.486-2.564,2.1c-0.203,0.245-0.458,0.454-0.713,0.649
			c-1.088,0.831-2.157,1.692-3.284,2.468c-5.876,4.047-12.328,6.995-18.839,9.826c-0.438,0.191-0.927,0.261-1.38,0.424
			c-0.322,0.116-0.824-0.059-0.932,0.668c0.551,0.231,1.107,0.547,1.706,0.701c2.86,0.736,5.783,0.923,8.602,0.036
			c3.685-1.159,7.436-2.279,10.889-3.967c4.771-2.331,9.286-5.178,13.504-8.458c1.906-1.483,3.932-2.811,5.89-4.229
			c1.239-0.898,2.49-1.785,3.67-2.757c3.349-2.759,4.88-6.314,4.533-10.659c-0.135-1.687-0.178-3.385-0.4-5.06
			c-0.486-3.667-0.18-7.195,1.206-10.671c0.772-1.935,1.24-4.005,1.709-6.044c0.614-2.669,0.036-5.119-1.707-7.263
			c-0.61-0.75-1.256-1.473-1.84-2.243c-4.236-5.583-6.436-11.662-4.49-18.838c-1.859,0.194-3.675-0.047-5.463-0.461
			c-6.444-1.493-12.961-2.572-19.494-3.59c-4.253-0.662-8.508-0.601-12.775-0.399c-0.589,0.028-1.288-0.038-1.651,0.6
			c0.727,1.05,1.433,2.013,2.077,3.015c0.632,0.984,0.578,2.295,1.327,3.237c1.934-0.977,2.406-1.081,4.291-0.767
			c2.38,0.396,4.753,0.837,7.092,1.252c0.194,0.408,0.359,0.756,0.543,1.143c1.734-0.332,3.391-0.42,4.979,0.327
			c-0.12,0.582-0.223,1.077-0.354,1.707c1.297-0.27,2.398-0.498,3.498-0.729c0.42-0.088,0.797-0.073,1.061,0.475
			c-0.293,0.5-0.622,1.045-0.934,1.601c-0.22,0.393-0.232,0.76,0.188,0.996c1.227-0.011,1.784-1.344,3.132-1.569
			c-0.228,1.471-0.929,2.509-1.628,3.563c-0.018,0.127-0.036,0.254-0.038,0.269C362.864,161.817,362.893,161.679,362.921,161.541z
			 M369.692,306.394c0.013-0.543-0.271-0.618-0.876-0.424c0.408,0.162,0.68,0.27,0.952,0.378c0.453,0.436,0.853,0.953,1.368,1.295
			c2.869,1.901,5.01,4.52,7.145,7.147c0.234,0.287,0.372,0.652,0.715,1.271c-1.937-0.677-3.308-1.646-4.729-2.53
			c-1.367-0.85-2.72-1.743-4.165-2.439c-1.484-0.715-2.732-1.92-4.771-2.346c1.51,1.252,2.818,2.191,3.946,3.311
			c1.195,1.186,2.293,2.489,3.302,3.84c1.57,2.1,1.992,3.078,2.074,4.275c-3.821-1.863-6.761-4.983-10.845-6.853
			c1.479,1.707,2.838,3.089,3.972,4.636c1.101,1.502,2.616,2.771,3.204,4.943c-4.028-1.7-7.101-4.465-10.749-6.373
			c0.496,1.099,1.375,1.887,2.044,2.823c0.703,0.982,1.417,1.96,2.056,2.983c0.618,0.991,1.445,1.902,1.634,3.46
			c-1.176-0.276-1.882-0.939-2.668-1.406c-0.761-0.452-1.486-0.963-2.238-1.43c-0.761-0.473-1.288-1.367-2.462-1.453
			c0.802,2.193,2.421,3.796,2.989,5.859c-0.413,0.617-0.839,0.568-1.261,0.182c-1.425-1.304-2.833-2.626-4.262-3.926
			c-0.292-0.266-0.435-0.8-1.104-0.716c0.357,0.925,0.656,1.756,0.998,2.569c0.437,1.04,0.922,2.059,1.356,3.1
			c0.107,0.257,0.264,0.617-0.37,0.759c-1.098-1.949-3.389-2.392-5.209-4.098c0.216,1.345,0.921,2.027,1.293,2.86
			c0.16,0.358,0.34,0.734-0.241,1.115c-0.284-0.136-0.665-0.256-0.975-0.476c-1.318-0.938-2.517-2.006-3.477-3.325
			c-0.214-0.294-0.394-0.745-0.942-0.503c0.57,2.273,2.34,4.013,2.955,6.393c-1.119,0.083-1.761-0.586-2.461-1.049
			c-0.736-0.486-1.435-1.043-2.083-1.642c-0.708-0.655-1.334-1.398-2.003-2.095c-0.585-0.609-1.007-1.394-2.145-2.123
			c0.251,0.767,0.336,1.123,0.481,1.453c0.682,1.549,1.391,3.086,2.068,4.637c0.152,0.349,0.339,0.761-0.241,1.035
			c-1.878-1.371-3.5-3.02-4.917-4.879c-0.173-0.226-0.333-0.574-0.752-0.224c0.221,1.357,0.908,2.549,1.491,3.783
			c0.146,0.308,0.543,0.645,0.029,1.042c-1.616-0.991-3.236-1.984-4.866-2.984c-0.18,1.052,0.809,1.822,0.453,2.952
			c-0.607-0.175-1.175-0.258-1.663-0.501c-0.57-0.284-1.088-0.687-1.597-1.079c-0.445-0.343-0.841-0.748-1.269-1.114
			c-0.452-0.387-0.715-1.001-1.528-1.393c0.258,1.563,1.082,2.566,1.734,3.705c-1.882,0.79-3.528,0.537-5.061-0.621
			c-0.578-0.436-1.143-0.889-1.719-1.328c-0.236-0.179-0.404-0.544-0.844-0.298c0.064,0.207,0.075,0.463,0.203,0.629
			c1.552,1.996,3.386,3.696,5.673,4.788c2.846,1.359,5.841,2.299,8.958,2.859c10.958,1.966,21.657,0.857,32.161-2.646
			c2.079-0.693,4.019-1.695,5.816-2.927c1.791-1.228,3.505-2.575,5.211-3.923c3.097-2.447,6.043-5.115,9.557-6.968
			c4.132-2.18,8.21-4.477,12.585-6.167c4.901-1.892,8.931-5.033,12.663-8.835c-1.43-0.886-2.782-1.721-4.131-2.56
			c-2.553-1.587-4.659-3.689-6.79-5.78c-1.853-1.819-3.499-3.768-4.877-5.972c-0.678-1.085-1.532-2.074-2.395-3.026
			c-0.775-0.856-1.738-1.38-2.982-1.354c-0.795,0.017-1.597-0.177-2.392-0.301c-1.286-0.201-2.536-0.313-3.771,0.338
			c-0.464,0.245-1.088,0.204-1.643,0.249c-0.596,0.049-1.195,0.047-2.115,0.078c1.007,0.861,1.971,1.034,2.854,1.352
			c0.909,0.328,1.845,0.578,2.766,0.877c0.92,0.298,1.834,0.613,2.751,0.921c0.879,0.295,1.758,0.59,2.839,0.953
			c-0.702,0.66-1.37,0.449-1.951,0.476c-0.641,0.029-1.287-0.05-1.93-0.1c-0.642-0.05-1.281-0.13-1.923-0.18
			c-0.642-0.05-1.286-0.084-1.929-0.115c-0.724-0.035-1.449-0.056-2.173-0.089c-0.643-0.029-1.287-0.056-1.93-0.102
			c-0.643-0.047-1.283-0.131-1.926-0.172c-0.561-0.036-1.128-0.305-2.221,0.014c2.981,1.387,5.535,2.476,8.256,3.227
			c2.757,0.761,5.624,1.093,8.577,2.128c-1.41,0.556-2.608,0.457-3.779,0.342c-2.885-0.281-5.764-0.631-8.646-0.955
			c-0.64-0.072-1.282-0.132-1.919-0.227c-0.557-0.083-1.105-0.235-1.663-0.303c-0.552-0.068-1.083-0.49-1.794-0.048
			c5.246,2.731,10.766,4.377,16.478,5.542c-0.464,0.747-1.183,0.401-1.771,0.471c-0.717,0.085-1.447,0.057-2.172,0.071
			c-0.644,0.012-1.289,0.028-1.933,0.015c-0.724-0.015-1.448-0.056-2.172-0.094c-0.643-0.034-1.288-0.06-1.928-0.127
			c-0.641-0.067-1.278-0.174-1.914-0.277c-0.716-0.115-1.432-0.231-2.143-0.373c-0.632-0.126-1.26-0.278-1.884-0.439
			c-0.702-0.181-1.394-0.404-2.099-0.575c-0.555-0.134-1.097-0.496-1.866-0.286c0.291,0.323,0.413,0.555,0.605,0.657
			c2.909,1.558,5.804,3.143,8.753,4.623c1.213,0.609,2.527,1.055,3.942,0.954l-0.033,0.043c0.063,0.59-0.376,0.622-0.762,0.636
			c-2.482,0.09-4.954,0.004-7.354-0.714c-2.908-0.87-5.803-1.78-8.719-2.666c-0.201-0.135-0.401-0.27-0.602-0.406
			c-0.033,0.069-0.066,0.137-0.098,0.206c0.259,0.057,0.518,0.115,0.777,0.172c0.16,0.252,0.269,0.568,0.489,0.747
			c3.219,2.626,6.456,5.23,9.677,7.853c0.218,0.178,0.347,0.465,0.54,0.733c-0.209,0.081-0.289,0.145-0.336,0.126
			c-3.929-1.571-7.955-2.915-11.66-5.012C370.791,306.663,370.219,306.569,369.692,306.394z M188.39,186.804l0.038,0.046
			c-0.614-0.82-1.229-1.64-2.002-2.672c0.945,0.134,1.66,0.235,2.521,0.356c-1.095-1.67-2.728-2.127-4.47-2.67
			c1.549-0.852,3.098,0.237,4.603-0.475c-0.555-0.28-0.988-0.486-1.409-0.716c-0.425-0.231-0.825-0.509-1.258-0.722
			c-0.432-0.212-0.904-0.344-1.336-0.558c-0.359-0.177-0.877-0.025-1.217-0.453c0.903-0.617,1.674-0.088,2.445-0.064
			c0.797,0.025,1.597,0.062,2.307-0.422c-0.544-0.771-0.542-0.814-0.443-2.051c0.032-0.399-0.04-0.807-0.015-1.207
			c0.09-1.446,0.201-2.891,0.305-4.336c0.09-1.242,0.608-2.346,1.234-3.376c1.214-1.999,3.667-2.971,5.868-2.304
			c1.985,0.602,3.705,1.656,4.622,3.615c0.578,1.234,1.181,2.51,1.427,3.831c0.352,1.887,0.477,3.831,0.532,5.756
			c0.055,1.929-0.162,3.865-0.14,5.797c0.029,2.594-0.018,5.161-1.375,8.035c1.115-1.029,1.474-1.883,1.824-2.757
			c1.151-2.872,1.653-5.886,2.018-8.935c0.737-6.152-0.052-12.031-2.873-17.623c-1.091-2.163-2.055-4.374-3.647-6.238
			c-0.311-0.364-0.539-0.802-0.78-1.22c-0.066-0.115-0.041-0.281-0.059-0.431c0.596,0.123,1.189,0.245,2.1,0.433
			c-0.577-0.627-0.924-1.005-1.339-1.455c0.602-0.433,1.09-0.785,1.601-1.153c-0.625-0.619-1.145-0.252-1.663-0.086
			c-0.421,0.135-0.848,0.493-1.247-0.022c0.262-1.259,1.414-1.512,2.357-1.948c-0.502-0.816-1.665-0.574-1.829-1.536
			c0.54-0.782,1.779-0.212,2.231-1.166c-0.539-0.754-1.061-1.444-1.527-2.171c-0.083-0.129,0.063-0.406,0.102-0.607
			c0.691,0.035,1.305,0.066,1.91,0.097c0.365-1.563-1.278-2.488-1.009-4.098c0.982,0.283,1.875,0.54,2.943,0.848
			c-0.224-1.923-2.066-2.82-2.312-4.767c0.628,0.33,1.064,0.509,1.444,0.771c0.594,0.41,1.132,0.904,1.733,1.302
			c0.208,0.137,0.535,0.094,0.897,0.146c-0.252-1.992-1.661-3.265-2.22-4.856c0.339-0.478,0.688-0.528,1.101-0.308
			c0.714,0.379,1.289,1.08,2.252,1.118c-0.16-1.516-1.313-2.525-1.399-3.932c1.147-0.182,1.764,1.266,2.976,0.772
			c-0.009-0.887-1.117-1.487-0.717-2.296c1.117-1.352,2.882-0.586,4.117-1.519c-2.411-1.588-5.134-2.609-10.843-4.105
			c-0.119,0.1-0.3,0.177-0.349,0.305c-0.967,2.535-2.605,4.617-4.433,6.568c-1.344,1.434-2.375,3.068-2.961,4.937
			c-1.287,4.107-2.977,7.994-5.827,11.289c-0.105,0.122-0.205,0.251-0.287,0.389c-0.658,1.119-1.135,2.294-1.376,3.587
			c-0.481,2.584-0.34,5.137,0.24,7.675c0.647,2.828,1.336,5.645,2.021,8.464c0.375,1.545,0.728,3.085,0.141,5.275
			c-0.574-3.084-2.354-4.723-4.087-6.394c-0.754-0.727-1.509-1.453-2.271-2.171c-3.237-3.055-7.03-5.136-11.344-6.157
			c-4.159-0.985-8.326-0.953-12.347,0.699c-2.607,1.071-5.191,2.195-7.651,3.6c-2.027,1.157-4.141,2.166-6.238,3.196
			c-2.513,1.233-4.649,2.879-6.135,5.297c-0.421,0.686-0.871,1.357-1.347,2.005c-2.167,2.949-4.954,5.037-8.487,6.094
			c-2.878,0.861-5.807,1.323-8.818,1.223c-0.61-0.02-1.221-0.002-2.044-0.001c0.289,0.719,0.489,1.226,0.696,1.73
			c0.49,1.191,1.054,2.358,1.462,3.577c0.973,2.906,1.732,5.867,2.232,8.9c0.605,3.67,1.656,7.226,3.119,10.65
			c1.807,4.23,5.254,6.607,9.379,8.173c0.502,0.191,1.106,0.132,1.663,0.147c0.11,0.003,0.226-0.187,0.367-0.313
			c0.198-0.865-1.338-1.017-0.824-2.107c0.343-0.165,0.769-0.37,1.184-0.57c0.008-0.712,0.217-1.499-0.029-2.1
			c-0.283-0.688-0.969-1.21-1.504-1.832c0.871-0.334,1.721,0.704,2.613-0.205c-0.37-0.488-0.756-0.97-1.112-1.474
			c-0.338-0.479-0.952-0.772-1.133-1.373c0.95-0.66,2.055,0.198,2.817-0.627c-0.963-0.949-2.522-1.091-3.41-2.565
			c1.615,0.173,3.008,0.322,4.401,0.472c0.132-0.118,0.264-0.235,0.395-0.353c-0.209-0.129-0.41-0.276-0.629-0.384
			c-1.298-0.641-2.604-1.268-3.9-1.915c-0.231-0.116-0.669-0.154-0.322-0.731c0.426,0.093,0.889,0.188,1.349,0.297
			c0.392,0.092,0.776,0.229,1.172,0.292c0.405,0.064,0.819,0.536,1.249,0.043c-0.705-1.244-2.479-1.132-3.227-2.727
			c1.671,0.482,3.108,0.896,4.768,1.375c-0.425-0.869-1.034-1.1-1.572-1.401c-1.475-0.826-2.968-1.621-4.434-2.464
			c-0.29-0.167-0.708-0.395-0.361-1.014c2.218,0.639,4.457,1.285,6.697,1.931c-0.502-0.712-1.137-1.14-1.872-1.447
			c-1.635-0.684-3.258-1.394-4.881-2.107c-0.342-0.15-0.779-0.276-0.51-0.915c0.922,0.225,1.854,0.472,2.795,0.677
			c1.191,0.26,1.194,0.246,2.658-0.144c-1.065-0.54-2.113-0.975-3.054-1.575c-0.97-0.618-2.148-0.982-3.271-2.383
			c3.12,1.046,5.707,1.914,8.705,2.92c-1.301-1.044-2.278-1.836-3.265-2.616c-2.023-1.599-2.025-1.596-2.537-2.791
			c1.106,0.09,2.024,0.555,2.975,0.924c1.126,0.437,2.265,0.842,3.401,1.252c0.226,0.082,0.465,0.143,0.703,0.176
			c0.162,0.023,0.334-0.02,0.636-0.045c-1.91-1.431-3.648-2.728-5.372-4.043c-0.072-0.055-0.008-0.287-0.006-0.699
			c2.802,0.545,5.182,2.368,8.484,2.672c-1.177-0.934-1.996-1.555-2.78-2.217c-0.613-0.517-1.202-1.067-1.756-1.645
			c-0.132-0.137-0.193-0.552-0.094-0.656c0.19-0.2,0.568-0.433,0.782-0.368c1.768,0.536,3.516,1.137,5.29,1.721
			c0.269,0.077,0.537,0.155,0.806,0.232c0.008-0.049,0.016-0.097,0.024-0.146c-0.289-0.033-0.577-0.065-0.866-0.098
			c-0.072-0.281-0.06-0.639-0.232-0.828c-0.706-0.771-1.485-1.474-2.203-2.235c-0.252-0.267-0.406-0.626-0.665-1.04
			c1.67-1.183,3.001,0.259,4.588,0.366c-0.317-1.563-1.272-2.655-2.202-4.106c2.614,0.522,4.319,2.235,6.72,2.978
			c-0.506-1.157-1.275-1.763-1.854-2.511c-0.557-0.719-1.413-1.297-1.451-2.59c2.555,0.462,4.09,2.71,6.617,3.149
			c-1.059-1.917-2.612-3.403-3.07-5.769c1.726,1,2.87,2.501,4.814,3.182c-0.945-1.215-1.761-2.21-2.501-3.259
			c-0.168-0.238-0.072-0.661-0.113-1.205c1.578,0.565,2.923,1.046,4.411,1.579c-0.658-1.232-1.818-1.991-2.168-3.401
			c1.897,0.237,3.15,1.787,5.076,1.934c-0.186-0.999-0.752-1.536-1.265-2.126c-0.562-0.647-1.314-1.17-1.587-2.083
			c1.461-0.134,2.129,1.371,3.726,1.6c-0.514-0.512-0.798-0.782-1.067-1.067c-0.248-0.264-0.663-0.454-0.423-1.103
			c0.596,0.116,1.212,0.187,1.798,0.361c1.081,0.321,2.13,0.748,3.216,1.05c5.501,1.527,10.454,4.168,15.112,7.406
			c1.618,1.125,3.152,2.377,5.306,3.16c-0.53,0.277-0.777,0.482-1.055,0.536c-0.786,0.154-1.608,0.164-2.374,0.379
			c-1.951,0.549-3.932,0.815-5.952,0.925c-1.201,0.066-2.42,0.195-3.582,0.489c-1.716,0.434-2.376,1.135-1.221,2.926
			c1.796,2.784,3.242,5.746,4.481,8.821c1.492,3.703,3.638,7.019,6.476,9.823c3.554,3.51,7.332,6.772,11.482,9.577
			c1.8,1.217,3.681,2.333,5.376,3.683c5.042,4.016,10.253,7.784,15.62,11.356c4.248,2.827,7.397,6.666,9.519,11.32
			c0.836,1.832,1.676,3.664,2.436,5.529c1.274,3.127,3.266,5.718,5.753,7.955c0.169,0.152,0.378,0.558,0.804,0.101
			c-0.267-0.373-0.529-0.767-0.818-1.139c-1.636-2.111-2.973-4.382-4.047-6.841c-1.126-2.578-2.284-5.174-3.746-7.567
			c-2.306-3.776-4.874-7.393-7.343-11.068c-0.313-0.466-0.69-0.892-1.055-1.321c-3.657-4.301-7.755-8.172-11.81-12.085
			c-0.338-0.326-0.792-0.691-0.866-1.098c-0.137-0.752-0.66-1.068-1.166-1.45c-0.56-0.423-1.134-0.828-1.705-1.243
			c0.097-0.337,0.187-0.562,0.223-0.796c0.044-0.287,0.044-0.581,0.061-0.843c-0.292-0.084-0.444-0.14-0.6-0.17
			c-0.158-0.03-0.323-0.022-0.48-0.052c-1.434-0.271-1.454-0.308-1.33-1.927c0.008-0.108-0.126-0.227-0.214-0.375
			c-0.435,0.12-0.881,0.243-1.436,0.396c-0.806-1.08-2.019-1.652-3.125-2.341c0.204-0.476,0.35-0.818,0.493-1.152
			c-0.791-0.228-1.534-0.442-2.322-0.669c0.136-0.473,0.258-0.895,0.419-1.452c-0.928,0.17-1.869,0.793-2.527-0.248
			c0.354-0.743,1.443-0.821,1.416-1.793c-0.985-0.129-1.925-0.252-2.909-0.382c0.345-0.908,1.622-0.534,1.735-1.654
			c-0.613-0.839-1.825-0.565-2.751-1.096c0.914-0.937,2.275-0.672,3.067-1.601C189.993,186.825,189.191,186.815,188.39,186.804z
			 M213.923,209.229c0.063,0.131,0.125,0.261,0.188,0.392c0.374-0.084,0.762-0.129,1.12-0.258c1.97-0.709,3.975-1.341,5.891-2.177
			c7.924-3.461,16.234-4.574,24.791-4.121c3.774,0.2,7.355,1.204,10.242,3.77c2.283,2.028,4.533,4.118,6.357,6.605
			c1,1.363,2.048,2.691,3.045,4.057c1.474,2.018,3.41,3.346,5.754,4.205c3.834,1.405,7.817,1.888,11.848,2.124
			c2.25,0.132,4.505,0.184,6.756,0.302c5.608,0.293,10.736,1.991,15.319,5.272c2.233,1.599,4.31,3.371,6.159,5.41
			c1.244,1.372,2.536,2.699,3.814,4.039c1.818,1.906,3.999,3.227,6.507,4.019c5.441,1.717,10.659,0.954,15.72-1.44
			c0.315-0.149,0.53-0.508,0.846-0.824c-0.474-0.523-0.836-0.951-1.228-1.349c-4.013-4.076-8.133-8.039-12.466-11.776
			c-2.694-2.323-5.602-4.334-8.775-5.956c-5.067-2.589-10.341-4.454-16.072-4.892c-5.067-0.387-10.134-0.404-15.204-0.205
			c-4.441,0.174-8.85-0.186-13.252-0.658c-3.145-0.337-5.895-1.549-8.061-3.942c-1.351-1.493-2.791-2.906-4.105-4.429
			c-1.955-2.265-4.103-4.327-6.418-6.206c-1.244-1.01-2.563-1.97-3.97-2.727c-5.296-2.851-11-3.503-16.887-2.77
			c-2.344,0.292-4.548,1.129-6.452,2.562c-1.412,1.063-2.799,2.178-4.075,3.398c-2.211,2.114-4.33,4.324-6.479,6.503
			C214.506,208.487,214.226,208.869,213.923,209.229z M319.482,117.592c0.633,0.286,1.192,0.578,1.778,0.797
			c3.69,1.378,5.886,4.067,6.935,7.797c0.26,0.924,0.618,1.82,0.921,2.698c2.366,1.174,4.744,2.208,5.927,4.777
			c1.068,0.101,2.193-0.401,3.229,0.08c0.005,0.536,0.008,0.946,0.012,1.362c1.17,0.06,2.069-0.998,3.237-0.243
			c-0.057,0.477-0.121,1.001-0.211,1.748c0.773-0.35,1.388-0.689,2.044-0.899c0.35-0.112,0.772,0,1.137,0.01
			c0.076,0.419,0.131,0.723,0.184,1.013c0.473,0.136,0.907,0.262,1.351,0.389c-0.117,0.581-0.216,1.076-0.346,1.722
			c0.605-0.146,0.985-0.272,1.375-0.323c0.56-0.073,0.93,0.153,0.97,0.764c-0.328,0.414-0.651,0.822-1.186,1.497
			c2.933-0.017,5.392,1.078,8.185,1.044c-0.177-0.477-0.261-0.78-0.397-1.056c-1.097-2.233-2.811-3.914-4.852-5.268
			c-2.223-1.475-4.603-2.665-7.147-3.472c-3.177-1.008-6.091-2.493-8.816-4.411c-1.913-1.346-3.289-3.049-4.11-5.227
			c-0.624-1.658-1.183-3.35-1.939-4.946c-0.824-1.74-1.779-3.428-2.798-5.062c-0.722-1.158-1.786-2-3.155-2.464
			c-0.862,1.217-0.329,2.624-0.823,3.812C320.496,114.913,320.054,116.118,319.482,117.592z M171.169,131.051
			c0,0.148-0.041,0.311,0.007,0.441c0.225,0.604,0.465,1.202,0.717,1.796c2.165,5.102,3.438,10.387,3.329,15.965
			c-0.033,1.707-0.222,3.372-0.879,4.966c-0.174,0.421-0.245,0.885-0.397,1.453c2.622,0.967,4.778,2.582,7.355,3.481
			c-1.98-2.177-2.156-4.827-2.255-7.501c-0.012-0.322-0.029-0.645-0.024-0.967c0.057-3.535-0.735-6.869-2.328-10.022
			c-0.545-1.079-1.002-2.203-1.576-3.265C173.934,135.211,172.839,132.97,171.169,131.051z M311.726,214.199
			c0.095,0.139,0.189,0.279,0.284,0.419c0.629-0.341,1.281-0.645,1.883-1.029c1.426-0.908,2.833-1.846,4.239-2.784
			c5.557-3.706,10.162-8.385,14.053-13.788c1.363-1.893,2.697-3.806,4.039-5.714c0.91-1.295,1.81-2.597,3.001-4.307
			c-2.624,1.318-4.711,2.449-6.207,4.456c-1.345,1.805-2.84,3.5-4.165,5.319c-4.384,6.019-9.294,11.518-15.361,15.91
			C312.866,213.135,312.313,213.69,311.726,214.199z M143.175,157.574c-0.4,1.538-0.949,2.945-0.62,4.545
			c0.292-0.02,0.566,0.04,0.748-0.063c3.073-1.736,6.136-3.491,9.194-5.255c0.084-0.048,0.08-0.248,0.163-0.536
			c-1.7,0.416-3.309,0.832-4.928,1.199C146.266,157.796,144.79,158.102,143.175,157.574z M166.95,238.846
			c0.201-0.118,0.405-0.215,0.574-0.354c0.035-0.029-0.064-0.218-0.101-0.333c-0.205,0.098-0.416,0.187-0.606,0.308
			C166.794,238.482,166.889,238.68,166.95,238.846z M370.272,182.445l0.043-0.11l-0.163,0.008L370.272,182.445z"/>
		<path style="fill:#222220;" d="M163.355,337.744c1.404,2.057,3.437,2.668,5.628,3.069c2.215,0.406,4.4,0.974,6.603,1.472
			c0.21-0.369-0.021-0.588-0.31-0.732c-3.572-1.779-6.501-4.449-9.565-6.928c-0.559-0.453-1.058-0.997-1.518-1.554
			c-2.366-2.864-4.453-5.927-6.304-9.145c-0.434-0.755-0.703-1.621-0.932-2.467c-0.081-0.298,0.185-0.691,0.335-1.176
			c1.945,1.239,3.379,2.753,4.841,4.226c0.621,0.626,1.176,1.331,1.685,2.054c3.043,4.319,7.11,7.434,11.721,9.866
			c2.347,1.238,4.802,2.269,7.209,3.394c2.553,1.193,5.094,2.413,7.661,3.574c6.329,2.863,12.891,4.476,19.921,4.006
			c4.454-0.298,8.746-1.349,13.074-2.273c0.945-0.202,1.893-0.388,2.842-0.569c1.71-0.327,2.915,0.239,3.78,1.828
			c1.076,1.977,2.283,3.889,3.532,5.764c3.062,4.595,7.287,7.871,11.999,10.649c4.893,2.884,10.116,4.963,15.443,6.838
			c0.985,0.347,1.943,0.775,2.894,1.209c0.996,0.454,1.361,1.277,1.337,2.354c-0.089,4.105-1.045,7.974-3.099,11.544
			c-0.298,0.519-0.322,1.277-1.227,1.507c-0.398-1.361-0.794-2.711-1.272-4.346c-0.796,1.946-1.463,3.61-2.158,5.264
			c-0.701,1.669-1.43,3.327-2.238,5.201c-0.596-1.134-1.064-2.024-1.688-3.211c-0.256,0.534-0.382,0.771-0.486,1.017
			c-0.466,1.107-0.775,2.314-1.418,3.306c-1.439,2.22-2.818,4.462-3.841,6.885c-0.6-0.131-0.636-0.559-0.688-0.946
			c-0.182-1.34-0.344-2.682-0.53-4.155c-0.319,0.236-0.587,0.331-0.669,0.511c-1.153,2.53-2.932,4.61-4.74,6.672
			c-1.259,1.436-2.794,2.635-3.548,4.456c-1.426-0.523-0.721-2.021-1.525-2.632c-1.656,1.54-3.323,3.026-4.914,4.589
			c-1.535,1.507-2.992,3.093-4.541,4.704c-1.187-2.025-0.129-4.041,0.174-6.328c-0.833,0.512-1.344,0.867-1.891,1.152
			c-0.571,0.296-1.178,0.522-1.768,0.782c-0.59,0.259-1.202,0.481-1.765,0.789c-4.031,2.201-8.062,4.401-12.067,6.649
			c-0.759,0.426-1.401,1.062-2.103,1.605c-0.536-0.001-0.634-0.43-0.68-0.81c-0.086-0.708-0.099-1.424-0.143-2.151
			c-0.647-0.255-0.877,0.309-1.219,0.525c-2.178,1.376-4.289,2.864-6.501,4.183c-9.689,5.779-19.41,11.506-29.11,17.269
			c-2.775,1.649-5.619,3.142-8.665,4.25c-0.421-0.675,0.26-0.849,0.525-1.107c3.065-2.996,5.844-6.207,8.023-9.927
			c2.051-3.503,3.637-7.174,4.547-11.138c0.809-3.526,0.652-7.061,0-10.561c-0.709-3.806-1.966-7.474-3.271-11.116
			c-0.072-0.201-0.283-0.352-0.521-0.634c-0.69,0.803-1.329,1.546-2.286,2.66c0.104-1.092,0.212-1.689,0.203-2.283
			c-0.01-0.64-0.111-1.282-0.207-1.917c-0.085-0.557-0.212-1.108-0.331-1.659c-0.137-0.63-0.328-1.251-0.422-1.887
			c-0.341-2.308-0.655-4.62-0.969-6.932c-0.075-0.555-0.11-1.116-0.174-1.793c-1.712,0.722-2.392,2.414-3.812,3.724
			c-0.108-0.543-0.238-0.823-0.203-1.082c0.319-2.396,0.665-4.788,1.005-7.18c0.351-2.47,0.472-4.931-0.232-7.551
			c-1.039,0.428-1.503,1.284-2.118,1.973c-0.608,0.682-0.877,1.679-2.004,2.274c0.285-4.218,1.79-8.058,1.244-12.195
			c-0.994,0.474-1.23,1.79-2.392,1.875c-0.274-1.343,0.134-6.375,0.878-10.964c-0.442-0.357-0.715,0.018-1.025,0.238
			c-0.432,0.306-0.867,0.608-1.259,0.883c-0.476-0.376-0.279-0.695-0.201-0.977c0.733-2.641,1.439-5.29,2.235-7.912
			c0.658-2.168,1.72-4.167,2.881-6.105C161.555,339.299,162.115,338.404,163.355,337.744z M190.158,368.383
			c-0.616,0.133-1.265,0.184-1.844,0.413c-3.384,1.337-6.48,3.191-9.321,5.453c-0.745,0.593-1.39,1.334-1.986,2.083
			c-0.274,0.344-0.318,0.871-0.47,1.309c-0.133-0.011-0.266-0.021-0.399-0.032c0.022,0.093,0.044,0.185,0.066,0.278
			c0.098-0.107,0.195-0.214,0.292-0.321c0.185-0.144,0.397-0.264,0.55-0.436c2.096-2.362,4.62-4.158,7.41-5.593
			c1.561-0.803,3.159-1.535,4.729-2.32c0.394-0.197,0.958-0.258,0.946-0.896c0.458,0.3,0.824,0.289,1.093-0.45
			C190.791,368.079,190.475,368.231,190.158,368.383z"/>
		<path style="fill:#222220;" d="M310.631,413.652c-0.1-0.544-0.143-1.106-0.31-1.628c-1.479-4.628-2.424-9.351-2.668-14.214
			c-0.084-1.677-0.306-3.347-0.46-4.969c0.463-0.328,0.656-0.028,0.882,0.194c2.353,2.315,4.667,4.672,7.071,6.932
			c4.09,3.846,7.552,8.201,10.154,13.148c2.101,3.995,3.577,8.279,4.492,12.73c0.405,1.97,0.165,3.844-0.67,5.657
			c-0.202,0.439-0.389,0.888-0.633,1.302c-1.331,2.262-2.677,4.514-4.11,6.923c-0.928-0.977-0.501-2.085-0.629-3.048
			c-0.125-0.938-0.025-1.909-0.442-2.965c-0.253,0.224-0.502,0.334-0.534,0.489c-1.018,4.999-3.502,9.342-6.183,13.567
			c-6.086,9.591-20.972,17.605-20.972,17.605s-0.203-8.583-0.394-9.527c-1.063-5.257-2.871-10.232-5.661-14.835
			c-1.163-1.919-2.274-3.87-3.536-6.025c-0.249,1.037-0.459,1.911-0.735,3.06c-0.29-0.493-0.47-0.777-0.629-1.073
			c-0.725-1.347-1.423-2.708-2.171-4.041c-0.513-0.913-1.132-1.767-1.631-2.687c-0.488-0.901-0.883-1.851-1.367-2.881
			c-0.536,0.85-1.024,1.623-1.557,2.468c-1.721-2.936-2.642-5.645-5.529-16.171c-1.323,1.238-1.474,3.047-2.415,4.392
			c-0.62,0.023-0.549-0.486-0.63-0.811c-0.61-2.452-0.568-4.954-0.496-7.452c0.06-2.089,0.171-4.176,0.267-6.448
			c-1.144,0.624-1.761,1.905-3.189,1.821c0.21-5.413,2.249-10.247,3.923-15.263c-0.404-0.042-0.742-0.077-1.165-0.121
			c0.372-3.356,1.625-6.383,3.362-9.222c2.208-3.606,4.944-6.687,8.414-9.206c4.025-2.923,8.327-5.202,12.999-6.84
			c3.67-1.286,7.14-3.053,10.427-5.066c7.767-4.759,11.843-11.858,12.445-20.935c0.171-2.581-0.047-5.154-0.437-7.71
			c-0.07-0.456-0.124-0.913-0.183-1.353c0.573-0.191,0.665,0.203,0.806,0.417c1.956,2.958,3.866,5.945,5.851,8.883
			c0.717,1.061,1.539,2.068,2.422,2.996c1.442,1.517,2.976,2.947,4.464,4.42c0.268,0.265,0.504,0.563,0.892,1
			c-1.225,0.134-2.25,0.246-3.462,0.379c1.592,1.365,3.059,2.567,4.461,3.841c1.372,1.245,2.673,2.568,4.015,3.847
			c1.383,1.318,2.866,2.542,4.01,4.073c-0.459,0.808-1.117,0.245-1.749,0.534c3.765,4.547,6.528,9.626,8.67,15.301
			c-0.658-0.05-1.092-0.083-1.629-0.124c0.085,1.141,0.657,2.03,1.1,2.948c1.416,2.933,2.374,6,2.67,9.244
			c0.138,1.52,0.102,3.056,0.115,4.586c0.003,0.384-0.111,0.768-0.176,1.187c-1.141,0.149-1.379-1.14-2.417-1.228
			c-0.167,0.712,0.204,1.351,0.29,2.007c0.105,0.798,0.275,1.588,0.388,2.385c0.102,0.717,0.193,1.438,0.242,2.161
			c0.054,0.804,0.071,1.611,0.074,2.416c0.003,0.725-0.008,1.452-0.062,2.174c-0.054,0.723-0.158,1.442-0.26,2.16
			c-0.113,0.798-0.215,1.6-0.384,2.387c-0.149,0.693-0.384,1.368-0.61,2.154c-1.74-0.662-1.561-2.766-3.041-3.812
			c-0.116,6.53-2.17,12.423-4.334,18.512c-0.849-0.754-0.84-1.668-1.026-2.484c-0.171-0.751-0.176-1.562-0.95-2.485
			c-0.34,1.648-0.567,2.974-0.897,4.274c-0.316,1.248-0.726,2.473-1.117,3.701c-0.411,1.289-0.848,2.57-1.299,3.928
			c-0.689-0.364-0.67-0.972-0.711-1.483c-0.305-3.768-1.621-7.213-3.294-10.551c-0.18-0.359-0.35-0.728-0.478-1.109
			c-2.215-6.619-6.055-12.24-10.633-17.42c-1.919-2.172-3.786-4.392-5.635-6.624c-4.584-5.534-7.026-12.072-8.797-18.918
			c-0.017-0.065,0.048-0.151,0.133-0.396c0.252,0.103,0.511,0.176,0.737,0.306c0.621,0.359,1.188,0.847,1.847,1.099
			c5.284,2.017,9.796,5.205,13.888,9.042c1.819,1.706,3.629,3.422,5.447,5.13c0.066,0.114,0.117,0.238,0.195,0.342
			c0.026,0.034,0.122,0.014,0.186,0.018c-0.02-0.107-0.011-0.285-0.065-0.307c-0.111-0.045-0.256-0.007-0.387-0.003
			c0.006-0.22,0.098-0.495,0-0.649c-0.259-0.404-0.575-0.779-0.914-1.121c-3.514-3.55-6.971-7.164-10.888-10.285
			c-2.794-2.227-4.73-5.018-5.875-8.393c-0.773-2.279-1.615-4.534-2.482-6.957c-3.643,2.21-6.805,4.656-8.139,8.854
			c-1.099,3.459-2.329,6.876-3.959,10.127c-2.063,4.115-3.621,8.441-5.365,12.689c-0.273,0.665-0.411,1.385-0.692,2.361
			c0.385-0.433,0.68-0.645,0.813-0.931c2.481-5.348,5.642-10.311,8.666-15.351c0.742-1.237,1.468-2.483,2.285-3.865
			c0.217,0.362,0.455,0.601,0.513,0.878c0.727,3.478,1.229,6.978,1.08,10.55c-0.102,2.447-0.809,4.76-1.475,7.082
			c-1.611,5.608-2.547,11.323-2.531,17.159c0.007,2.409,0.323,4.817,0.523,7.224c0.017,0.204,0.216,0.394,0.33,0.591
			c-0.215,0.498-0.348,0.983,0.203,1.37c-0.044,0.139-0.082,0.271-0.12,0.403c0.035-0.118,0.071-0.237,0.106-0.355
			c-0.134-0.454,0.329-1.016-0.252-1.388c0.087-0.871,0.283-1.748,0.242-2.613c-0.222-4.618,0.244-9.171,1.176-13.684
			c0.787-3.811,2.353-7.337,3.986-10.959c0.245,0.253,0.499,0.391,0.539,0.576c0.792,3.642,2.404,7.004,3.583,10.513
			c0.795,2.367,1.675,4.706,2.565,7.039c0.337,0.883,0.506,1.876,1.332,2.508c0.255,0.815,0.255,0.815,0.807,1.334
			c-0.055-0.239-0.07-0.479-0.167-0.68C310.983,414.125,310.793,413.895,310.631,413.652z"/>
		<path style="fill:#222220;" d="M85.035,341.553c-2.554-1.19-5.11-2.378-7.662-3.572c-2.338-1.094-4.62-2.283-6.733-3.782
			c-0.584-0.414-1.255-0.706-2.005-1.12c0.731-0.585,1.641-0.506,2.436-0.694c0.842-0.199,1.724-0.23,2.89-0.37
			c-4.086-1.899-7.914-3.677-11.708-5.44c-0.036-0.689,0.476-0.686,0.796-0.749c1.012-0.199,2.039-0.32,3.097-0.477
			c-0.117-0.256-0.145-0.472-0.245-0.514c-3.015-1.246-5.647-3.108-8.088-5.217c-2.138-1.848-4.246-3.698-6.86-4.688
			c-0.099-0.553,0.173-0.713,0.512-0.705c0.641,0.016,1.284,0.07,1.92,0.151c0.777,0.099,1.543,0.158,2.538-0.065
			c-3.1-1.751-5.645-3.813-7.872-6.293c-1.182-1.316-2.538-2.474-3.8-3.719c-0.335-0.331-0.614-0.719-1.1-1.296
			c0.703-0.005,1.154-0.027,1.603-0.005c0.392,0.019,0.781,0.087,1.258,0.144c-1.584-2.462-2.148-2.892-5.813-4.332
			c3.5,0.238,6.421-0.71,9.424-1.081c2.411-0.297,4.746-0.909,6.962-1.935c2.56-1.185,5.132-2.342,7.686-3.539
			c2.413-1.131,4.813-2.283,7.537-2.461c0.136-0.009,0.263-0.158,0.473-0.292c-0.335-1.347-1.825-1.307-2.607-2.01
			c0.024-0.171,0.011-0.29,0.049-0.31c0.138-0.071,0.289-0.121,0.441-0.156c1.254-0.292,2.507-0.594,3.766-0.862
			c1.418-0.302,2.882-0.449,4.256-0.883c2.757-0.871,5.467-1.891,8.203-2.851c-0.416-1.294-1.857-0.971-2.472-1.825
			c1.95-1.063,6.38-1.993,9.172-1.942c-0.33-1.137-1.786-0.962-2.357-1.871c0.189-0.165,0.286-0.325,0.392-0.331
			c1.606-0.093,3.216-0.127,4.82-0.25c4.527-0.346,5.16-0.315,9.334,0.671c0.39-0.432,0.008-0.71-0.219-0.995
			c-0.486-0.609-0.996-1.2-1.525-1.832c5.128-2.053,11.342-1.177,18.505,2.586c0.12-0.366,0.251-0.7,0.338-1.044
			c0.157-0.623,0.262-1.26,0.438-1.877c0.084-0.297,0.279-0.562,0.483-0.956c0.553,0.083,1.112,0.093,1.622,0.256
			c4.005,1.278,7.859,2.902,11.447,5.116c1.85,1.142,3.727,2.242,5.555,3.417c2.791,1.794,5.215,4.043,7.604,6.324
			c0.753,0.72,1.349,1.582,1.904,2.628c-0.56,0.809-1.081,1.604-1.645,2.368c-2.933,3.979-4.271,8.483-4.151,13.375
			c0.109,4.422,1.188,8.6,3.784,12.297c1.63,2.322,3.316,4.566,5.932,5.889c0.131,0.066,0.207,0.242,0.374,0.446
			c-0.609,6.705-2.861,12.903-6.491,18.711c-1.411-0.986-1.768-2.59-2.434-4.174c-2.655,3.619-6.037,6.074-9.496,8.444
			c-0.85,0.582-1.648,1.239-2.527,1.904c-1.122-1.119-0.282-2.577-0.888-3.86c-2.424,3.365-5.966,4.73-9.732,5.87
			c-0.128-0.536-0.215-0.903-0.303-1.272c-5.369,1.549-7.256,1.834-10.36,1.564c0.365-0.605,0.726-1.203,1.062-1.76
			c-0.337-0.542-0.577-0.141-0.852-0.078c-0.853,0.194-1.711,0.44-2.577,0.487c-3.004,0.164-5.924-0.397-9.036-1.169
			c0.455-0.578,0.82-1.043,1.189-1.512c-0.156-0.09-0.303-0.246-0.402-0.221c-3.172,0.815-6.222,0.165-9.373-0.675
			c0.111-0.53,0.202-0.964,0.293-1.398c-0.144-0.082-0.288-0.238-0.406-0.22c-2.136,0.326-4.16-0.113-6.159-0.823
			c-1.338-0.476-2.676-0.942-3.893-1.606c0.202-1.043,1.51-0.683,1.675-1.602c0.139-0.006,0.276-0.015,0.414-0.025
			C85.295,341.495,85.165,341.524,85.035,341.553z M111.162,327.243c0.384-0.04,0.748-0.115,0.916-0.53
			c0.526-0.258,0.722-0.726,0.801-1.267c0.595,0.057,0.65-0.391,0.747-0.8c1.022-0.257,1.449-1.207,2.115-1.863
			c2.121-2.088,4.053-4.384,6.536-6.073c2.13-1.449,4.281-2.872,6.475-4.223c3.102-1.911,6.376-3.447,9.968-4.224
			c0.369-0.08,0.712-0.28,1.133-0.452c-1.45-2.336-0.6-4.623-0.148-6.928c-2.18-1.961-4.006-4.198-5.572-6.622
			c-2.328-3.602-5.123-6.824-7.901-10.065c-0.156-0.182-0.293-0.616-0.839-0.279c0.427,0.593,0.854,1.16,1.255,1.745
			c2.187,3.19,4.453,6.334,5.999,9.909c0.741,1.713,1.606,3.335,2.919,4.688c0.075,0.077,0.026,0.275,0.043,0.546
			c-0.639-0.001-1.276,0.039-1.906-0.009c-4.094-0.309-8.18-0.857-12.292-0.676c-1.8,0.079-3.294-0.344-4.696-1.465
			c-2.269-1.814-4.714-3.363-7.359-4.593c-0.644-0.299-1.208-0.768-1.842-1.145c-0.559-0.161-1.117-0.322-1.675-0.483
			c-0.014,0.097-0.028,0.194-0.042,0.291c0.595,0.052,1.191,0.104,1.787,0.156c-0.017,0.233-0.138,0.593-0.034,0.677
			c0.559,0.453,1.168,0.845,1.768,1.245c1.736,1.157,3.484,2.298,5.21,3.469c0.371,0.252,0.838,0.525,0.529,1.249
			c-0.25,0.02-0.57,0.117-0.856,0.056c-2.514-0.538-5.043-1.022-7.525-1.68c-3.585-0.952-7.22-1.573-10.899-1.965
			c-2.482-0.264-4.971-0.319-7.454-0.025c-0.432,0.051-0.995-0.06-1.235,0.515c-0.504-0.28-0.993-0.405-1.476,0.158
			c0.542,0.07,1.059,0.38,1.45-0.218c0.546,0.086,1.097,0.268,1.638,0.243c4.164-0.193,8.19,0.547,12.118,1.829
			c3.062,0.999,6.075,2.148,9.103,3.25c0.257,0.094,0.461,0.336,0.715,0.528c-0.958,0.816-0.957,0.819-1.46,0.938
			c-1.488,0.355-2.992,0.656-4.463,1.071c-3.722,1.05-7.428,2.151-11.142,3.231c-3.181,0.924-6.283,2.049-9.195,3.648
			c-0.528,0.29-1.019,0.649-1.527,0.977c0.411,0.154,0.681,0.051,0.946-0.065c2.96-1.294,6.011-2.318,9.143-3.103
			c3.852-0.964,7.761-1.409,11.733-1.216c0.71,0.034,1.465-0.039,2.051,0.622c-0.89,2.285-3.071,3.596-4.328,5.632
			c0.449-0.163,0.85-0.378,1.178-0.674c1.255-1.134,2.552-2.232,3.71-3.459c1.603-1.698,3.519-2.332,5.821-2.435
			c5.423-0.242,10.778,0.305,16.124,1.077c0.097,0.014,0.167,0.216,0.226,0.298c-1.729,1.289-3.519,2.501-5.169,3.881
			c-3.851,3.222-6.961,7.146-10.156,10.984c-0.241,0.289-0.313,0.719-0.464,1.085c-0.581-0.036-0.632,0.414-0.742,0.81
			c-0.689,0.163-0.685,0.757-0.798,1.278c-0.348,0.159-0.696,0.318-1.031,0.476c0.058,0.104,0.117,0.209,0.175,0.313
			c-0.064,0.002-0.128,0.004-0.193,0.006C111.104,327.471,111.133,327.357,111.162,327.243z"/>
		<path style="fill:#222220;" d="M268.181,130.237c0.05-0.289,0.021-0.772,0.165-0.831c0.472-0.194,1.01-0.068,1.235,0.422
			c0.208,0.451,0.239,0.984,0.354,1.511c1.181-0.426,0.709-2.077,2.1-2.372c0.144,0.851,0.283,1.67,0.449,2.645
			c1.384-1.033,1.431-2.972,2.838-3.701c1.263,0.54,0.351,1.912,1.209,2.532c0.619-0.299,0.598-0.921,0.78-1.415
			c0.249-0.68,0.42-1.389,0.682-2.064c0.069-0.178,0.346-0.376,0.529-0.378c0.179-0.002,0.434,0.197,0.525,0.375
			c0.172,0.337,0.25,0.721,0.387,1.15c1.149-0.424,1.21-1.994,2.59-2.179c0.249,0.619,0.509,1.265,0.86,2.134
			c0.974-1.274,1.604-2.65,2.923-3.614c0.408,1.373-0.363,2.435-0.446,3.698c1.043-0.456,1.074-1.614,1.753-2.253
			c0.63-0.594,1.175-1.278,1.85-2.026c0.508,0.62,0.238,1.175,0.212,1.673c-0.026,0.479-0.149,0.954-0.24,1.429
			c-0.105,0.549-0.221,1.095-0.414,2.046c1.383-2.005,2.056-4.01,3.821-5.673c-0.069,1.954-0.126,3.586-0.19,5.397
			c1.081-1.356,2.099-2.493,2.59-3.991c0.107-0.326,0.501-0.558,0.821-0.895c0.876,1.344-0.299,2.789,0.49,4.09
			c1.234-1.015,1.491-2.775,3.086-3.621c0.129,0.482,0.329,0.843,0.297,1.182c-0.142,1.517-0.35,3.028-0.555,4.709
			c1.543-1.178,1.24-3.4,2.921-4.485c0.45,1.772-0.067,3.479-0.151,5.466c0.965-0.67,1.227-1.538,1.655-2.243
			c0.4-0.659,0.634-1.419,1.042-2.37c1.36,2.255-0.398,4.241,0.044,6.407c0.241-0.237,0.438-0.348,0.507-0.511
			c0.563-1.345,0.971-2.725,0.99-4.207c0.006-0.44,0.363-0.738,0.817-0.713c0.466,0.025,0.745,0.406,0.728,0.816
			c-0.089,2.247-0.227,4.493-0.347,6.696c0.991-1.36,1.255-3.352,2.945-4.568c1.067,1.338,0.397,2.631,0.365,3.84
			c-0.032,1.192-0.209,2.38-0.336,3.722c1.795-1.712,1.931-4.184,3.346-5.872c0.67,0.115,0.59,0.557,0.517,0.934
			c-0.429,2.213-0.879,4.422-1.396,7c1.128-1.776,1.533-3.591,3.125-4.883c0.211,2.239-0.537,4.189-0.408,6.396
			c0.971-1.302,1.712-2.637,2.986-3.703c0.56,1.031,0.109,1.84-0.051,2.655c-0.168,0.855-0.33,1.712-0.548,2.849
			c0.586-0.206,0.919-0.323,1.495-0.525c0.128,0.392,0.27,0.826,0.405,1.237c0.226-0.048,0.467-0.036,0.505-0.117
			c0.437-0.942,0.842-1.899,1.273-2.891c0.47,0.797,0.283,1.611,0.057,2.38c-0.428,1.453-0.937,2.883-1.443,4.417
			c1.366-0.559,2.091-1.797,3.088-2.616c0.655,0.176,0.553,0.656,0.471,0.984c-0.312,1.242-0.693,2.467-1.073,3.786
			c1.319-0.759,1.5-2.331,2.427-3.329c0.553-0.085,0.677,0.339,0.76,0.711c0.285,1.283,0.224,2.561-0.179,3.815
			c-0.197,0.611-0.415,1.214-0.609,1.777c0.369,0.579,0.713,0.119,1.052,0.116c0.69-0.006,1.382,0.113,2.188,0.191
			c-0.425,1.217-0.789,2.259-1.269,3.634c0.979-0.614,1.686-1.058,2.492-1.564c0.808,1.308,0.299,2.418-0.073,3.524
			c-0.142,0.421-0.322,0.829-0.637,1.63c0.985-0.561,1.595-0.908,2.31-1.315c0.316,0.367,0.594,0.69,0.893,1.037
			c-1.612,0.945-1.612,0.945-2.321,2.379c0.801,0.553,1.958-0.608,2.672,0.602c-0.672,0.79-1.369,1.609-2.095,2.462
			c0.846,0.918,1.571,0.071,2.296,0.068c0.342,0.438,0.054,0.709-0.257,0.982c-0.599,0.525-1.249,1.019-1.251,2.029
			c1.223,0.255,1.894-1.2,3.136-0.972c0.027,1.818-2.297,2.163-2.542,4.092c0.528-0.24,0.866-0.365,1.174-0.54
			c0.347-0.197,0.711-0.514,1.055-0.119c0.344,0.395,0.067,0.762-0.282,0.997c-0.965,0.65-1.523,1.594-2.098,2.89
			c1.106-0.678,2.01-1.232,2.939-1.801c-0.132,0.946-0.352,1.334-1.332,2.817c-0.596,0.903-1.661,1.438-1.969,2.593
			c1.616-1.284,3.306-2.422,5.097-3.553c0.214,0.712-0.398,0.834-0.618,1.17c-0.219,0.335-0.516,0.618-0.76,0.938
			c-0.294,0.383-0.553,0.793-0.857,1.168c-0.251,0.309-0.546,0.584-0.848,0.901c1.461-0.012,1.705-0.075,2.986-0.841
			c1.175-0.703,2.328-1.445,3.52-2.117c0.452-0.255,0.987-0.36,1.66-0.272c-0.195,0.205-0.367,0.442-0.59,0.609
			c-2.266,1.69-4.351,3.581-6.358,5.567c-0.627,0.62-1.336,1.167-2.047,1.692c-1.992,1.472-4.2,1.924-6.636,1.411
			c-3.016-0.636-5.848-1.806-8.707-2.901c-5.813-2.227-11.167-5.392-16.72-8.151c-2.445-1.214-4.981-2.298-7.569-3.158
			c-3.324-1.105-6.805-1.233-10.282-0.879c-1.945,0.198-3.75,0.897-5.493,1.77c-2.98,1.491-5.596,3.492-8.105,5.659
			c-2.012,1.737-4.062,3.431-6.102,5.134c-0.37,0.309-0.784,0.566-1.168,0.859c-5.112,3.894-10.493,3.502-15.921,0.86
			c-2.46-1.198-4.749-2.724-6.711-4.684c-0.498-0.497-1.094-0.895-1.721-1.4c0.444-0.387,0.845-0.738,1.395-1.218
			c-0.54-0.378-0.967-0.688-1.407-0.98c-0.518-0.343-1.108-0.531-1.376-1.24c-0.139-0.367-0.722-0.587-1.134-0.822
			c-0.393-0.224-0.825-0.379-1.351-0.615c1.017-0.823,2.448-0.095,3.208-1.294c-1.098-1.25-2.711-1.502-4.613-2.077
			c0.662-0.252,0.929-0.454,1.173-0.428c0.719,0.075,1.424,0.285,2.143,0.351c0.358,0.033,0.734-0.13,1.343-0.253
			c-0.977-0.677-1.904-0.894-2.517-1.734c-0.409-0.561-1.355-0.73-2.037-1.064c0.057-1.028,1.096-0.425,1.465-1.03
			c0.31-0.509,0.938-0.824,1.474-1.265c-0.449-0.523-1.113-0.424-1.701-0.506c-0.617-0.085-1.013-0.408-1.274-0.87
			c0.151-0.609,0.575-0.588,0.97-0.591c0.853-0.006,1.757,0.356,2.565-0.421c-0.86-1.391-2.504-1.78-3.684-2.672
			c0.242-0.621,0.603-0.296,0.873-0.345c0.236-0.043,0.48-0.047,0.712-0.102c0.312-0.075,0.633-0.149,0.917-0.289
			c0.183-0.09,0.308-0.299,0.569-0.569c-1.165-0.689-2.572-0.664-3.616-1.717c0.861-0.147,1.59-0.271,2.337-0.398
			c-0.217-1.131-1.405-0.763-1.9-1.586c1.161-0.278,2.218-0.532,3.423-0.821c-0.499-1.184-1.716-1.004-2.353-1.663
			c-0.185-0.491,0.109-0.753,0.518-0.856c0.689-0.173,1.395-0.275,2.093-0.407c-0.116-0.886-0.893-0.968-1.317-1.405
			c-0.413-0.425-0.716-0.888-0.195-1.605c0.528,0.022,1.134,0.047,1.735,0.072c0.03-0.212,0.109-0.384,0.063-0.511
			c-0.271-0.747-0.571-1.483-0.954-2.46c0.654,0.062,1.08,0.103,1.682,0.16c-0.016-0.862-0.117-1.723-0.023-2.561
			c0.097-0.855,0.041-1.786,0.759-2.635c0.762,0.532,0.377,1.541,0.987,2.167c0.462-0.049,0.268-0.592,0.488-0.814
			c0.324-0.326,0.756-0.576,0.989-0.953c0.198-0.321,0.192-0.773,0.254-1.17c0.06-0.386,0.092-0.776,0.165-1.414
			c0.779,0.878,0.106,2.059,1,2.682c0.981-0.851,0.193-2.596,1.585-3.306c0.87,1.25-0.073,2.604,0.489,3.94
			c1.17-1.168,1.191-2.879,2.127-4.268c1.005,1.092-0.437,2.115,0.26,3.088c0.748-0.326,0.697-1.212,1.164-1.712
			c0.477-0.51,0.904-1.082,1.729-1.365c0.104,0.727,0.192,1.347,0.317,2.222c0.389-0.659,0.678-1.15,0.943-1.6
			c0.932,0.035,1.432,0.581,1.949,1.067c0.526,0.495,1.077,0.99,1.492,1.574c2.112,2.966,3.942,6.104,5.014,9.599
			c1.577,5.14,2.085,10.411,1.589,15.772c-0.051,0.545-0.065,1.093,0.162,1.718c0.165-0.384,0.353-0.76,0.49-1.154
			c1.982-5.704,2.017-11.545,1.128-17.427c-0.397-2.626-0.945-5.231-1.478-7.835c-0.362-1.771-0.339-3.5,0.083-5.264
			c0.504-2.108,1.753-3.388,3.849-3.868c0.39-0.089,0.781-0.17,1.241-0.27c0.343,0.313,0.684,0.623,1.158,1.055
			c0.318-0.861,0.607-1.641,0.883-2.387c0.483-0.008,0.865-0.015,1.235-0.013c-0.104,0.115-0.225,0.21-0.276,0.334
			c-0.028,0.068,0.06,0.184,0.095,0.279c0.01-0.07,0.012-0.142,0.032-0.209C268.088,130.492,268.137,130.365,268.181,130.237z
			 M289.334,148.954c0.121,0.643,0.156,0.951,0.237,1.246c0.647,2.372-0.047,4.441-1.405,6.371
			c-0.896,1.274-2.069,1.922-3.668,1.946c-1.419,0.021-2.701-0.304-3.939-0.945c-2.695-1.395-4.089-3.822-5.039-6.528
			c-0.975-2.78-0.289-3.997,2.57-4.857c1.464-0.44,2.951-0.805,4.433-1.184c1.247-0.318,2.489-0.68,3.756-0.894
			c2.944-0.497,5.584,0.28,7.927,2.103c2.309,1.795,3.231,4.171,2.77,7.03c-0.191,1.183-0.523,2.367-0.971,3.478
			c-0.664,1.647-0.806,3.298-0.275,4.958c0.783,2.451,1.632,4.883,2.535,7.293c0.298,0.796,0.758,1.561,1.449,2.25
			c4.052-3.216,6.224-7.203,5.808-12.393c-0.103-1.282-0.315-2.557-0.525-3.827c-0.759-4.582-3.276-7.984-7.144-10.426
			c-2.879-1.818-5.987-3.151-9.282-4.003c-2.884-0.745-5.743-0.573-8.551,0.446c-1.996,0.724-3.821,1.754-5.34,3.226
			c-1.014,0.983-2.062,1.14-3.304,0.658c-0.525-0.204-1.052-0.406-1.578-0.608c-1.788-0.685-3.576-1.37-5.534-2.12
			c-0.031,0.615-0.172,1.1-0.057,1.515c1.081,3.933,2.637,7.644,5.74,10.438c1.305,1.175,2.8,2.165,4.301,3.091
			c2.259,1.394,4.565,2.725,7.14,3.493c1.089,0.325,2.167,0.511,3.324,0.421c4.502-0.349,6.862-4.102,7.527-7.119
			C292.727,151.792,291.941,150.404,289.334,148.954z M236.712,175.73c0.803,0.169,1.343,0.093,2.071-0.248
			C237.933,175.036,237.377,175.045,236.712,175.73z M234.103,167.285c1.177,0.816,1.177,0.82,2.349-0.053
			C235.577,167.252,234.941,167.266,234.103,167.285z"/>
		<path style="fill:#222220;" d="M369.829,129.008c0.277-0.564,0.627-1.104,0.817-1.696c0.638-1.993,1.185-4.016,1.83-6.006
			c0.993-3.064,2.062-6.101,3.673-8.915c0.231-0.403,0.342-0.874,0.378-1.388c-1.292,0.99-1.867,2.486-2.726,3.77
			c-0.842,1.26-1.62,2.562-2.603,4.128c-0.086-0.862-0.152-1.395-0.191-1.931c-0.195-2.646-0.266-5.307-0.604-7.934
			c-0.44-3.427-1.062-6.833-1.663-10.237c-0.246-1.394-0.176-2.687,0.428-3.995c1.559-3.372,2.701-6.895,3.579-10.5
			c1.033-4.243,1.56-8.544,1.354-12.919c-0.017-0.367,0.116-0.83-0.434-0.968c0.413-0.522,0.386-1.095,0.204-1.687
			c-0.111-0.406-0.221-0.812-0.332-1.22c0.033-0.114,0.065-0.227,0.097-0.339c0.013,0.053,0.052,0.122,0.033,0.156
			c-0.031,0.053-0.102,0.082-0.157,0.121c0.144,0.413-0.182,0.986,0.416,1.246c-0.353,0.535-0.528,1.088-0.214,1.701
			c-0.214,2.314-0.403,4.631-0.649,6.942c-0.446,4.177-1.326,8.248-3.231,12.03c-0.502,0.997-1.156,1.92-1.763,2.862
			c-0.156,0.241-0.398,0.427-0.679,0.718c-0.206-0.315-0.402-0.485-0.432-0.68c-0.965-6.263-1.907-12.53-2.871-18.793
			c-0.22-1.427-0.487-2.848-0.789-4.26c-0.073-0.341-0.369-0.634-0.561-0.951c0.034-0.428,0.066-0.854,0.098-1.28
			c-0.061-0.074-0.122-0.149-0.183-0.223c0.05-0.031,0.101-0.062,0.151-0.093c0.029,0.09,0.057,0.181,0.077,0.278
			c-0.227,0.423-0.487,0.837-0.089,1.292c-0.403,2.479-0.221,4.977-0.156,7.46c0.093,3.555-0.105,7.083-0.56,10.603
			c-0.03,0.228-0.146,0.444-0.282,0.839c-0.361-0.302-0.679-0.501-0.911-0.772c-2.564-2.999-5.12-6.006-7.665-9.022
			c-0.467-0.553-0.918-1.127-1.305-1.738c-1.552-2.451-3.072-4.922-4.611-7.381c-0.783-1.251-0.97-2.452-0.178-3.843
			c1.113-1.957,2.113-3.985,3.047-6.035c4.851-9.245,4.851-23.24,4.851-23.24s12.929,5.754,19.888,18.51
			c0.327-0.76,0.566-1.315,0.807-1.878c0.158,0.053,0.351,0.057,0.41,0.147c0.88,1.349,1.809,2.672,2.586,4.079
			c0.612,1.108,1.029,2.324,1.558,3.549c0.915-0.929,0.152-2.187,0.751-3.382c0.985,1.608,1.596,3.208,2.235,4.782
			c0.661,1.628,1.225,3.295,1.917,5.176c0.347-0.785,0.608-1.376,0.865-1.957c0.273,0.093,0.496,0.101,0.543,0.196
			c0.892,1.799,1.836,3.579,2.603,5.431c0.317,0.765,0.243,1.692,0.354,2.598c0.578-0.417,1.136-0.82,1.921-1.387
			c0.29,2.271,0.43,4.294,0.277,6.71c0.768-0.656,1.164-0.995,1.564-1.337c0.114,0.148,0.287,0.274,0.27,0.366
			c-0.244,1.333-0.513,2.661-0.797,4.1c0.707,0.271,1.137-0.672,1.911-0.608c0.108,0.124,0.371,0.285,0.386,0.466
			c0.078,0.953,0.205,1.923,0.106,2.865c-0.175,1.662-0.502,3.307-0.761,4.932c0.343,0.357,0.614,0.09,0.897-0.02
			c0.211-0.081,0.424-0.154,0.633-0.23c0.085,0.174,0.227,0.323,0.2,0.43c-0.296,1.171-0.636,2.33-0.927,3.502
			c-0.21,0.844-0.363,1.703-0.515,2.424c0.615,0.706,1.007-0.137,1.47,0.133c0.406,0.212,0.439,0.595,0.216,0.977
			c-0.528,0.903-1.135,1.762-1.625,2.683c-0.487,0.915-0.87,1.884-1.304,2.84c0.907,0.595,1.505-0.683,2.421-0.1
			c-0.817,1.688-1.673,3.381-2.461,5.105c-0.769,1.682-1.469,3.395-2.274,5.269c0.653,0.04,1.213,0.074,2.01,0.122
			c-1.337,1.409-2.486,2.625-3.642,3.836c-2.502,2.62-4.968,5.277-7.523,7.844c-2.907,2.921-6.442,4.79-10.391,5.922
			c-0.684,0.196-1.257,0.157-1.82-0.264C369.778,128.934,369.829,129.008,369.829,129.008z"/>
		<path style="fill:#222220;" d="M387.704,207.263c0.086-0.41,0.1-0.726,0.218-0.997c0.654-1.51,1.681-2.746,2.949-3.77
			c3.783-3.056,7.947-5.492,12.389-7.448c2.168-0.954,4.477-1.293,6.833-1.327c4.293-0.063,8.522,0.388,12.663,1.563
			c1.938,0.55,3.883,1.073,5.826,1.606c6.641,1.82,13.384,2.837,20.29,2.661c1.346-0.034,2.742-0.184,4.064,0.548
			c0.68,2.367,0.618,4.757,0.195,7.145c-0.778,4.391-3.05,7.969-6.349,10.844c-6.183,5.387-13.451,8.174-21.64,8.359
			c-5.211,0.117-10.008-1.551-14.447-4.166c-2.332-1.374-3.817-3.649-5.359-5.825c-1.022-1.443-2.07-2.879-3.235-4.205
			c-2.509-2.857-5.742-4.355-9.507-4.697c-1.281-0.117-2.573-0.112-3.86-0.172C388.435,207.368,388.137,207.314,387.704,207.263z
			 M401.665,207.143c0.301-0.124,0.491-0.144,0.582-0.249c1.616-1.859,3.69-2.477,6.075-2.279c0.72,0.06,1.444,0.085,2.161,0.169
			c3.535,0.414,6.927,1.436,10.319,2.458c1.302,0.392,2.612,0.756,4.017,1.161c-0.097-0.227-0.108-0.342-0.162-0.367
			c-3.128-1.464-6.229-2.971-9.51-4.106c-5.124-1.773-10.242-1.841-15.423-0.409c-0.281,0.078-0.538,0.24-0.99,0.447
			C399.594,205.337,400.897,206.033,401.665,207.143z"/>
		<path style="fill:#222220;" d="M230.328,339.096c0.393,0.48,0.824,0.932,1.172,1.443c4.224,6.211,10.026,10.681,16.449,14.28
			c5.846,3.276,12.099,5.678,18.838,6.514c4.921,0.61,9.808,0.425,14.612-0.847c2.721-0.72,5.4-1.597,8.1-2.399
			c0.533-0.158,1.071-0.296,1.57-0.433c0.346,0.425,0.095,0.628-0.149,0.835c-1.658,1.401-3.318,2.8-4.973,4.205
			c-1.779,1.511-3.626,2.952-5.31,4.564c-2.205,2.111-4.286,4.352-6.409,6.548c-1.342,1.388-2.659,2.801-3.998,4.192
			c-0.434,0.451-0.903,0.869-1.321,1.268c-0.55-0.218-0.439-0.565-0.29-0.829c1.394-2.474,2.319-5.122,3.067-7.851
			c0.295-1.075,0.818-2.087,1.243-3.143c-0.479-0.747-1.259-0.607-1.946-0.633c-4.297-0.161-8.456-1.05-12.566-2.263
			c-6.898-2.035-13.054-5.451-18.604-9.976c-2.76-2.251-5.079-4.936-7.131-7.838C231.114,344.517,230.401,341.965,230.328,339.096z"
			/>
		<path style="fill:#222220;" d="M251.005,344.156c0.097,0.091,0.251,0.171,0.272,0.277c0.016,0.081-0.137,0.196-0.215,0.295
			c-0.026-0.065-0.078-0.132-0.072-0.193c0.014-0.14,0.057-0.277,0.088-0.416C251.079,344.12,251.005,344.156,251.005,344.156z"/>
		<path style="fill:#222220;" d="M149.732,218.029c-0.086-0.084-0.172-0.168-0.258-0.251c-0.123,0.404,0.093,0.293,0.299,0.2
			C149.772,217.981,149.732,218.029,149.732,218.029z"/>
		<path style="fill:#222220;" d="M152.943,225.314c-0.129,0.04-0.257,0.083-0.389,0.111c-0.012,0.003-0.047-0.098-0.07-0.151
			c0.16,0.035,0.32,0.069,0.482,0.109C152.966,225.388,152.943,225.314,152.943,225.314z"/>
		<polygon style="fill:#222220;" points="156.96,194.624 156.948,194.828 156.806,194.753 		"/>
		<path style="fill:#222220;" d="M188.39,186.804c-0.703-0.151-1.547,0.432-2.356-0.529c1.041-0.18,1.714,0.163,2.386,0.564
			C188.428,186.849,188.39,186.804,188.39,186.804z"/>
		<path style="fill:#222220;" d="M389.346,305.212c0.082,0.058,0.163,0.115,0.245,0.173c-0.031-0.044-0.053-0.112-0.095-0.128
			c-0.053-0.02-0.121,0.001-0.183,0.001C389.314,305.255,389.346,305.212,389.346,305.212z"/>
		<path style="fill:#222220;" d="M372.046,183.884c0.155-0.003,0.32-0.041,0.46,0.004c0.095,0.03,0.152,0.176,0.226,0.271
			c-0.129,0.012-0.282,0.072-0.38,0.022c-0.127-0.064-0.21-0.216-0.315-0.342C372.033,183.827,372.046,183.884,372.046,183.884z"/>
	</g>
</g>
</svg>
